<?xml version="1.0" encoding="utf-8"?>
<!-- Generator: Adobe Illustrator 23.1.1, SVG Export Plug-In . SVG Version: 6.00 Build 0)  -->
<svg version="1.1" id="Layer_1" xmlns="http://www.w3.org/2000/svg" xmlns:xlink="http://www.w3.org/1999/xlink" x="0px" y="0px"
	 viewBox="0 0 419 326" style="enable-background:new 0 0 419 326;" xml:space="preserve">
<style type="text/css">
	.st0{fill:#F8F9FA;}
	.st1{fill:#6C63FF;}
	.st2{fill:none;stroke:#535461;stroke-miterlimit:10;}
	.st3{fill:none;stroke:#535461;stroke-width:2;stroke-miterlimit:10;}
	.st4{opacity:0.25;enable-background:new    ;}
	.st5{opacity:0.1;fill:#6C63FF;enable-background:new    ;}
	.st6{fill:#DBACA2;}
	.st7{fill:#E8C2B8;}
	.st8{opacity:0.1;enable-background:new    ;}
	.st9{fill:#EBECF0;}
	.st10{fill:url(#SVGID_1_);}
	.st11{fill:#FFD5D8;}
	.st12{fill:#FF7C5E;}
	.st13{opacity:5.000000e-02;enable-background:new    ;}
	.st14{fill:#85596B;}
</style>
<path class="st0" d="M264.8,2c0.6,0,1-0.5,1-1c0-0.6-0.5-1-1-1c-0.6,0-1,0.5-1,1C263.8,1.6,264.2,2,264.8,2z"/>
<path class="st0" d="M267.5,2c0.6,0,1-0.5,1-1c0-0.6-0.5-1-1-1c-0.6,0-1,0.5-1,1C266.5,1.6,266.9,2,267.5,2z"/>
<path class="st0" d="M270.2,2c0.6,0,1-0.5,1-1c0-0.6-0.5-1-1-1c-0.6,0-1,0.5-1,1C269.2,1.6,269.7,2,270.2,2z"/>
<path class="st1" d="M3.5,191.9c0,0-24.5,38.4,55.9,39c0,0,1.2-33.4-25.1-47.1c-5.1-2.7-11-3.4-16.6-2c-5.6,1.4-10.5,4.8-13.8,9.5
	L3.5,191.9z"/>
<path class="st2" d="M3.7,191.2c0,0,41.2,8.1,55.7,39.7"/>
<path class="st3" d="M63,225.7c0,0-26.5-34.2-24-67.9c1-14.1-2.3-28.3-10-40.2c-3.7-5.7-7.8-11-12.4-15.8"/>
<path class="st1" d="M17.9,80.5c1.8,4.7-1.4,21.8-1.4,21.8S2.6,91.9,0.8,87.2c-0.5-1.1-0.7-2.4-0.7-3.6c0-1.2,0.2-2.5,0.7-3.6
	c0.5-1.1,1.2-2.2,2.1-3c0.9-0.9,1.9-1.5,3.1-2c1.2-0.4,2.4-0.7,3.6-0.6c1.2,0,2.4,0.3,3.6,0.8c1.1,0.5,2.1,1.3,3,2.2
	C16.9,78.3,17.5,79.3,17.9,80.5z"/>
<path class="st1" d="M42.3,101.2c-1,5-13,17.6-13,17.6s-6-16.3-5-21.3c0.2-1.2,0.7-2.4,1.3-3.4c0.7-1,1.5-1.9,2.6-2.6
	c1-0.7,2.2-1.2,3.4-1.4c1.2-0.2,2.4-0.2,3.6,0c1.2,0.2,2.3,0.7,3.4,1.4s1.9,1.6,2.5,2.6s1.1,2.2,1.3,3.4
	C42.6,98.7,42.6,100,42.3,101.2L42.3,101.2z"/>
<path class="st1" d="M59.2,146.3c-3.4,3.8-20.1,8.6-20.1,8.6s3-17.1,6.4-20.9c1.6-1.8,3.9-2.8,6.3-3c2.4-0.1,4.8,0.7,6.6,2.3
	c1.8,1.6,2.9,3.9,3,6.3C61.6,142.1,60.8,144.4,59.2,146.3z"/>
<path class="st1" d="M64.3,183.2c-2.7,4.3-18.3,11.9-18.3,11.9s0.1-17.4,2.8-21.7c0.6-1.1,1.5-2,2.5-2.7c1-0.7,2.1-1.2,3.3-1.5
	c1.2-0.3,2.4-0.3,3.6-0.1c1.2,0.2,2.4,0.6,3.4,1.3c1,0.7,1.9,1.5,2.6,2.5c0.7,1,1.2,2.1,1.5,3.3c0.3,1.2,0.3,2.4,0.1,3.6
	C65.4,181.1,65,182.2,64.3,183.2L64.3,183.2z"/>
<path class="st1" d="M11.7,126.7c4.7,2,21.8-0.8,21.8-0.8s-10-14.2-14.7-16.2c-1.1-0.5-2.3-0.7-3.5-0.7c-1.2,0-2.4,0.2-3.5,0.7
	c-1.1,0.5-2.1,1.1-3,2c-0.9,0.9-1.5,1.9-2,3c-0.5,1.1-0.7,2.3-0.7,3.5c0,1.2,0.2,2.4,0.7,3.5c0.5,1.1,1.1,2.1,2,3
	C9.6,125.5,10.6,126.2,11.7,126.7z"/>
<path class="st1" d="M18.2,169.9c5.1,0.5,20.6-7.3,20.6-7.3S25,152,19.9,151.5c-1.2-0.1-2.5-0.1-3.6,0.3c-1.2,0.3-2.3,0.9-3.2,1.7
	c-1,0.8-1.8,1.7-2.3,2.8c-0.6,1.1-0.9,2.3-1.1,3.5c-0.1,1.2,0,2.5,0.4,3.6c0.4,1.2,1,2.3,1.8,3.2c0.8,0.9,1.8,1.7,2.9,2.3
	C15.8,169.5,17,169.8,18.2,169.9L18.2,169.9z"/>
<path class="st1" d="M30.3,211c4.9,1.3,21.5-3.7,21.5-3.7S40,194.5,35.1,193.2c-1.2-0.3-2.4-0.4-3.6-0.3c-1.2,0.1-2.4,0.5-3.5,1.1
	c-1.1,0.6-2,1.4-2.8,2.4c-0.8,1-1.3,2.1-1.6,3.3s-0.4,2.4-0.2,3.6s0.6,2.4,1.2,3.4c0.6,1.1,1.4,2,2.4,2.7
	C28,210.1,29.1,210.7,30.3,211z"/>
<path class="st4" d="M17.9,80.5c1.8,4.7-1.4,21.8-1.4,21.8S2.6,91.9,0.8,87.2c-0.5-1.1-0.7-2.4-0.7-3.6c0-1.2,0.2-2.5,0.7-3.6
	c0.5-1.1,1.2-2.2,2.1-3c0.9-0.9,1.9-1.5,3.1-2c1.2-0.4,2.4-0.7,3.6-0.6c1.2,0,2.4,0.3,3.6,0.8c1.1,0.5,2.1,1.3,3,2.2
	C16.9,78.3,17.5,79.3,17.9,80.5z"/>
<path class="st4" d="M42.3,101.2c-1,5-13,17.6-13,17.6s-6-16.3-5-21.3c0.2-1.2,0.7-2.4,1.3-3.4c0.7-1,1.5-1.9,2.6-2.6
	c1-0.7,2.2-1.2,3.4-1.4c1.2-0.2,2.4-0.2,3.6,0c1.2,0.2,2.3,0.7,3.4,1.4s1.9,1.6,2.5,2.6s1.1,2.2,1.3,3.4
	C42.6,98.7,42.6,100,42.3,101.2L42.3,101.2z"/>
<path class="st4" d="M59.2,146.3c-3.4,3.8-20.1,8.6-20.1,8.6s3-17.1,6.4-20.9c1.6-1.8,3.9-2.8,6.3-3c2.4-0.1,4.8,0.7,6.6,2.3
	c1.8,1.6,2.9,3.9,3,6.3C61.6,142.1,60.8,144.4,59.2,146.3z"/>
<path class="st4" d="M64.3,183.2c-2.7,4.3-18.3,11.9-18.3,11.9s0.1-17.4,2.8-21.7c0.6-1.1,1.5-2,2.5-2.7c1-0.7,2.1-1.2,3.3-1.5
	c1.2-0.3,2.4-0.3,3.6-0.1c1.2,0.2,2.4,0.6,3.4,1.3c1,0.7,1.9,1.5,2.6,2.5c0.7,1,1.2,2.1,1.5,3.3c0.3,1.2,0.3,2.4,0.1,3.6
	C65.4,181.1,65,182.2,64.3,183.2L64.3,183.2z"/>
<path class="st4" d="M11.7,126.7c4.7,2,21.8-0.8,21.8-0.8s-10-14.2-14.7-16.2c-1.1-0.5-2.3-0.7-3.5-0.7c-1.2,0-2.4,0.2-3.5,0.7
	c-1.1,0.5-2.1,1.1-3,2c-0.9,0.9-1.5,1.9-2,3c-0.5,1.1-0.7,2.3-0.7,3.5c0,1.2,0.2,2.4,0.7,3.5c0.5,1.1,1.1,2.1,2,3
	C9.6,125.5,10.6,126.2,11.7,126.7z"/>
<path class="st4" d="M18.2,169.9c5.1,0.5,20.6-7.3,20.6-7.3S25,152,19.9,151.5c-1.2-0.1-2.5-0.1-3.6,0.3c-1.2,0.3-2.3,0.9-3.2,1.7
	c-1,0.8-1.8,1.7-2.3,2.8c-0.6,1.1-0.9,2.3-1.1,3.5c-0.1,1.2,0,2.5,0.4,3.6c0.4,1.2,1,2.3,1.8,3.2c0.8,0.9,1.8,1.7,2.9,2.3
	C15.8,169.5,17,169.8,18.2,169.9L18.2,169.9z"/>
<path class="st4" d="M30.3,211c4.9,1.3,21.5-3.7,21.5-3.7S40,194.5,35.1,193.2c-1.2-0.3-2.4-0.4-3.6-0.3c-1.2,0.1-2.4,0.5-3.5,1.1
	c-1.1,0.6-2,1.4-2.8,2.4c-0.8,1-1.3,2.1-1.6,3.3s-0.4,2.4-0.2,3.6s0.6,2.4,1.2,3.4c0.6,1.1,1.4,2,2.4,2.7
	C28,210.1,29.1,210.7,30.3,211z"/>
<path class="st5" d="M229.5,160.1c-9.4-0.2-19.5,0.3-27,4c-13.9,6.8-12,20.7-21,30.4c-7.6,8.1-22.2,12.4-36.4,15.1
	c-23.1,4.4-47.2,6-70.1,10.8c-13.5,2.8-26.9,6.8-36.1,13.8c-9.2,6.9-13.4,17.2-7.1,25.4c5.8,7.6,18.5,11.6,30.1,15.5
	c11.6,3.9,23.9,9.1,27.1,17.2c1.8,4.6,0.5,9.5,2.6,14c4.1,8.9,19.6,13,33.6,15.3c11.1,1.8,22.4,3.1,33.8,4c9.1,0.7,18.4,1,27.4-0.3
	c7.7-1.1,14.9-3.5,22.3-5.3c47.2-11.5,101.4-1.6,149.5-11.3c8.8-1.8,17.4-4.2,24-8.3c5-3,8.6-6.8,11.7-10.7
	c7.9-9.9,12.2-21,12.5-32.1c0.2-6.7-1-13.4,0.8-20c1.9-6.8,7-13.1,9.8-19.9c5-12.2,1.5-25.8-9.3-36.3c-3.8-3.9-8.6-6.8-13.8-8.6
	c-4.4-1.4-9.2-1.9-14-2.5c-13.4-1.5-26.9-2.9-40.4-2.1c-9.6,0.6-19,2.3-28.6,2.6c-13.5,0.4-24.1-2.7-36.3-5.6
	C260.3,161.8,244.4,160.4,229.5,160.1z"/>
<path class="st6" d="M59.5,58.8v132.5l176.2-34.2l-3.4-101.6L59.5,58.8z"/>
<path class="st7" d="M390.7,215v43.8l-186.3,54.4l-1.9-1L55.1,235.8v-181l182.4-5.9l1.1,100.5l-7.3,2.2l-2.8-94L68,63.2l-1.1,136.1
	l139.7,61.2l0.1,0L390.7,215z"/>
<path class="st8" d="M390.7,215v43.8l-186.3,54.4l-1.9-1l4.3-51.8L390.7,215z"/>
<path class="st9" d="M166.1,151.4c0,0-90.2,9-99,22c-8.8,13-0.1,29-0.1,29l139.4,60.6l189.1-48.8c0,0-5.1-34.2-20.8-38.2
	c-15.7-3.9-140.9-30.9-140.9-30.9S183.5,142.2,166.1,151.4z"/>
<path class="st0" d="M67.1,173.6l142.2,49.1c0,0,151.7-46,173.2-41.7c0,0-106.1-38-148.5-36.3c-33.8,1.3-69.2,6.9-69.2,6.9
	S71,161,67.1,173.6z"/>
<linearGradient id="SVGID_1_" gradientUnits="userSpaceOnUse" x1="207.4374" y1="109.2624" x2="207.4374" y2="237.2429" gradientTransform="matrix(1 0 0 -1 1.140078e-06 326)">
	<stop  offset="0" style="stop-color:#808080;stop-opacity:0.25"/>
	<stop  offset="0.54" style="stop-color:#808080;stop-opacity:0.12"/>
	<stop  offset="1" style="stop-color:#808080;stop-opacity:0.1"/>
</linearGradient>
<path class="st10" d="M285.9,205.2L285.9,205.2L285.9,205.2l0.1-0.1v0V205v0v-0.1v0v-0.1v0c0,0,0-0.1,0-0.1c0,0,0-0.1,0-0.1s0,0,0,0
	c0,0,0,0,0-0.1v0v-0.1v0v-0.1v0v-0.1V204V204v0l0-0.1l0-0.1v0l0-0.1v-0.1l0-0.1l0-0.1l0-0.1l0-0.1l0-0.1l0-0.1l-0.1-0.1l0-0.1
	l-0.1-0.1l-0.1-0.2l0-0.1l-0.1-0.1l0-0.1l-0.1-0.1l0-0.1l-0.1-0.1l-0.1-0.2l-0.1-0.1l0-0.1l-0.1-0.1l0-0.1l-0.1-0.2v0l-0.1-0.2
	l0-0.1l-0.1-0.1l0-0.1l-0.1-0.1l0-0.1l-0.1-0.1l-0.1-0.1l-0.1-0.1l-0.1-0.1l-0.1-0.1l0-0.1l-0.1-0.2v0l-0.1-0.2l0-0.1l-0.1-0.1
	l-0.1-0.1l-0.1-0.1l-0.1-0.1l-0.1-0.1L283,199l-0.1-0.1l-0.1-0.1l-0.1-0.1l-0.1-0.1l-0.1-0.1l0,0c-0.4-0.6-0.9-1.1-1.4-1.7
	c-1.3-1.5-2.9-2.8-4.7-3.7c-1.8-0.9-3.7-1.5-5.8-1.7c-0.4,0-0.8-0.1-1.3-0.1h-0.2l-0.3,0h-0.2l-0.5-0.1l-0.5-0.1l-0.2,0l-0.3-0.1
	l-0.2,0l-0.3-0.1l-0.2,0l-0.3-0.1l-0.2-0.1l-0.3-0.1l-0.2-0.1l-0.3-0.1l-0.2-0.1l-0.3-0.1c-1.5-2.2-3.7-4.2-5.9-4.6
	c-0.6-0.1-1.2-0.1-1.8,0.1l-0.1-0.1l-0.1-0.2l-0.2-0.3l-0.1-0.2l-0.2-0.3l-0.1-0.1c-0.1-0.1-0.2-0.3-0.3-0.5
	c-0.3-0.1-0.6-0.2-0.9-0.3c4.4-0.7,8.7-1.7,12.9-3c0.2-0.1,0.4-0.2,0.6-0.3l0.1,0c3.7-1.3,8.2-14.4,5-16.2
	c-3.2-1.8-8-16.8-10.8-24.5c-2.8-7.7-11-8.5-11-8.5s-11.8-9.2-17.2-8.2c-5.3,1-6.2-7-6.7-7.3c-0.1,0-0.1-0.1-0.1-0.2
	c-1.3-2-11.5-4.7-17-6c-5.4-3.9-11.8-6.9-17-8.2c-1.7-0.5-3.6-0.5-5.3-0.2c-1.8,0.4-3.4,1.1-4.9,2.2c-10.9,0.6-12.7,8.8-12.7,8.8
	c0,1.1,0.2,2.2,0.6,3.3c-0.6,0-1.2,0-1.8-0.1c1.3-2.1,1.3-4.8,2.3-7.1c1.9-4.6,7-6.9,11.9-7.5c2.8-0.4,5.9-0.4,8.2-2.1
	c1.2-0.9,1.9-2.2,2.2-3.7c0.1-0.3,0.1-0.6-0.1-0.9c-0.1-0.2-0.3-0.3-0.5-0.4c-2.9-1.6-6.5-1.2-9.8-1.2c-5.4-0.1-10.7-1.6-15.9-3
	c-2.2-0.6-4.6-1.1-6.7-0.3c-2,0.8-3.4,2.6-5,4c-6.6,5.9-17.6,5-23.6,11.6c-1.4,1.5-2.4,3.6-1.9,5.6c0.2,0.8,0.7,1.6,0.8,2.4
	c0.3,1.6-0.6,3.2-1.4,4.7c-0.8,1.5-1.5,3.2-0.7,4.7c1.1,2.3,4.6,2.1,6.3,3.9c0.8,0.8,1.2,2,2.1,2.8c1.4,1.3,3.5,1.2,5.4,1
	c0.7-0.1,1.8-0.3,2.2-0.9c1.4,1.4,3.2,2.4,5.1,2.9s3.9,0.7,5.9,0.4c2-0.3,3.8-1.1,5.4-2.3c1.6-1.2,2.9-2.7,3.8-4.5
	c4-0.3,8,0.8,11.4,3.1c0.5,1.5,1.4,2.8,2.7,3.8c1.2,0.9,2.6,2,4,3.2c-3.5,0.9-6.7,1.5-6.7,1.5s-14,4.5-14,7.5
	c0.1,0.5,0.2,1.1,0.5,1.5c-0.4,0.7-0.6,1.6-0.6,2.4c-3.9-0.7-7-1.6-8.6-3.1c0,0-0.5-0.1-1.2-0.3c-0.9-1.2-3.7-4.5-5.3-4.4
	c-1.1,0.1-1.5,2.6-1.6,4.9c-0.1,0.1-0.3,0.3-0.4,0.4c-1.7,2.5,1.3,7.5,3.3,8.3s13,0.5,20.5,6c3.3,2.4,9,2.9,14.4,2.7
	c-5.3,3.8-12.8,9.6-13.9,13.2c-0.6,1.9-1.2,4.3-1.2,6.7c-3.3,4.3-8.2,13.5,4,17.8c10.1,3.6,37.4,3.1,56.9,2.3
	c9.1,1.6,16.5,3.2,19.7,4.7c0,0,7.5,1,10.5,2.8s8.5,1.3,8.5,1.3s10.7,1.8,13,4.2c2.3,2.3,6.3-4,1.3-7c-1.9-1.2-4.9-3.1-7.7-5.2
	c3.6,0.4,6.8,0.9,8.8,1.4l0.2,0h0.1h0.1h0.1h0.1h0.1h0.1h0.5h0.1h0h0.1h0h0.1h0h0.1h0l0.1,0h0l0,0h0l0.1-0.1L285.9,205.2z
	 M239.8,189.2c0,0-1.4-0.3-3.5-0.8l-4.2-1.7c0,0,7.1-2.2,13.7-5.1c1.9,0.8,3.5,1.5,4,2.1c0.2,0.2,0.4,0.3,0.7,0.4
	c-2.5,0.6-5.7,2.2-9.4,5.8C240.7,189.7,240.2,189.5,239.8,189.2z M189.5,149l4.1-1.9c0.9,0.8,1.9,1.5,2.8,2.2
	c-2.3,0.1-5.3,0.3-8.7,0.4C188.7,149.3,189.5,149,189.5,149z"/>
<path class="st11" d="M154.4,145.8c0,0-3.6-4.9-5.6-4.7c-2,0.1-1.6,8.3-1.6,8.3L154.4,145.8z"/>
<path class="st12" d="M200.6,149.1c0,0-38.2,3.1-45.4-3.4c0,0-6.7-1.8-8.3,0.7c-1.6,2.5,1.3,7.4,3.3,8.2c2,0.8,12.7,0.5,20.1,5.9
	s26.6,1,26.6,1l8-3.1L200.6,149.1z"/>
<path class="st13" d="M200.6,149.1c0,0-38.2,3.1-45.4-3.4c0,0-6.7-1.8-8.3,0.7c-1.6,2.5,1.3,7.4,3.3,8.2c2,0.8,12.7,0.5,20.1,5.9
	s26.6,1,26.6,1l8-3.1L200.6,149.1z"/>
<path class="st11" d="M255.3,167.4c0,0-8.2-5.9-25,1.5c-16.8,7.4-58.8,11.3-58.8,11.3s-14,14,2,19.8s76.4,1,76.4,1
	s24.7,1.6,32.3,3.4c4.6,1.1,1-4.2-2.6-8.5c-1.3-1.5-2.8-2.8-4.6-3.7c-1.8-0.9-3.7-1.5-5.6-1.6c-4.8-0.4-11.5-1.9-14.6-7
	c0,0-5.9-2.9-14.7,5.9l-8.5-3.5c0,0,23.3-7.3,24.2-12.3C256.6,168.8,255.3,167.4,255.3,167.4z"/>
<path class="st13" d="M255.3,167.4c0,0-8.2-5.9-25,1.5c-16.8,7.4-58.8,11.3-58.8,11.3s-14,14,2,19.8s76.4,1,76.4,1
	s24.7,1.6,32.3,3.4c4.1,0.9,1.8-3-1.3-6.8c-1.5-1.9-3.4-3.6-5.6-4.8c-2.2-1.2-4.5-2-7-2.3c-4.7-0.5-10.7-2.2-13.6-6.9
	c0,0-5.9-2.9-14.7,5.9l-8.5-3.5c0,0,23.3-7.3,24.2-12.3C256.6,168.8,255.3,167.4,255.3,167.4z"/>
<path class="st11" d="M255.5,144.2c0,0-10.3-16.3-34.6-2.1l-31.2,17.3c0,0-17.3,10.9-18.9,16.5c-1.6,5.6-4.1,15,12.9,18.6
	s56.5,8.2,64.8,12.3c0,0,7.3,1,10.3,2.8c2.9,1.8,8.3,1.3,8.3,1.3s10.5,1.8,12.7,4.1c2.3,2.3,6.2-3.9,1.3-6.9
	c-4.9-2.9-16-10.8-15.8-13.9c0.2-3.1-3.8-8.5-7.5-9.2c-3.8-0.7-8.7,4.9-8.7,4.9s-6.2,1-10-1.5c0,0-19.3-4.4-21.2-5.7
	c-2-1.3-15.3-6.4-15.3-6.4s31.7-0.3,41-8.8c0,0,3.6-2.6,6.5-1.8C250.1,165.7,264.6,160.2,255.5,144.2z"/>
<path class="st11" d="M162.9,113.5c0,0,9.3,6.5,16.5,0c7.2-6.5,3.1,20.1,3.1,20.1s-10-13.2-24.8-4.6L162.9,113.5z"/>
<path class="st13" d="M162.9,113.5c0,0,9.3,6.5,16.5,0c7.2-6.5,3.1,20.1,3.1,20.1s-10-13.2-24.8-4.6L162.9,113.5z"/>
<path class="st0" d="M123.1,169.5c0,0,9.8-8.3,15.3-8.5c1.7,0,3.6-1.7,5.4-4.1c2.4-3,5.5-5.2,9.1-6.5c3.6-1.3,7.4-1.6,11.1-0.9
	c3.2,0.6,7,0.6,11.8-0.6c17.1-4.2,8.7-14.9,8.7-14.9l-5.4-4.6c0,0-7.3-5.1-10.1-4.7c-2.8,0.3-10,7.7-10.8,6.9
	c-0.8-0.8-10.8-8.2-12.4-10.1c-1.6-2-14.7-8.3-11.4-10.1c3.3-1.8,19.8-8.5,16.5-9.8c-3.3-1.3-20.9-3.3-27.8,4.9
	C116.2,114.6,119.6,164.7,123.1,169.5z"/>
<path class="st13" d="M123.1,169.5c0,0,9.8-8.3,15.3-8.5c1.7,0,3.6-1.7,5.4-4.1c2.4-3,5.5-5.2,9.1-6.5c3.6-1.3,7.4-1.6,11.1-0.9
	c3.2,0.6,7,0.6,11.8-0.6c17.1-4.2,8.7-14.9,8.7-14.9l-5.4-4.6c0,0-7.3-5.1-10.1-4.7c-2.8,0.3-10,7.7-10.8,6.9
	c-0.8-0.8-10.8-8.2-12.4-10.1c-1.6-2-14.7-8.3-11.4-10.1c3.3-1.8,19.8-8.5,16.5-9.8c-3.3-1.3-20.9-3.3-27.8,4.9
	C116.2,114.6,119.6,164.7,123.1,169.5z"/>
<path class="st0" d="M123.7,168.3c0,0,9.8-8.3,15.3-8.5c1.7-0.1,3.6-1.7,5.4-4.1c2.4-2.9,5.5-5.2,9.1-6.5c3.6-1.3,7.4-1.6,11.1-0.9
	c3.2,0.6,7,0.6,11.8-0.6c17.1-4.2,8.7-14.9,8.7-14.9l-5.4-4.6c0,0-7.3-5.1-10.1-4.7c-2.8,0.3-10,7.7-10.8,6.9
	c-0.8-0.8-10.8-8.2-12.4-10.1c-1.6-2-14.7-8.3-11.4-10.1c3.3-1.8,19.8-8.5,16.5-9.8c-3.3-1.3-20.9-3.3-27.8,4.9
	C116.8,113.5,120.3,163.6,123.7,168.3z"/>
<path class="st11" d="M171.5,113.1c0,0,2.6-12.4,21.7-7.5c19.1,4.9,28.6,15.5,28.6,15.5l-17.3,8l-21.2-7.2
	C183.3,122,171.4,122.1,171.5,113.1z"/>
<path class="st13" d="M206.5,110c0,0,18.4,4,20.1,6.7c0,0.1,0.1,0.1,0.1,0.2c0.5,0.3,1.3,8.2,6.5,7.2c5.2-1,16.8,8,16.8,8
	s8,0.8,10.8,8.3c2.8,7.5,7.5,22.2,10.6,24c3.1,1.8-1.3,14.5-4.9,15.8c-3.6,1.3-16.5,4.4-17.6,2.8c-1.1-1.6-11.1-3.4-10.5-8.7
	c0.7-5.2,4.6-10.1,1.5-13.2c-3.1-3.1-5.1-11.3-9.6-12.9c-4.6-1.6-12.7-2.1-17.6,1.1c-4.9,3.3-10.8,3.4-10.8,3.4s-10.1-5.9-11.8-10
	c-1.1-2.8-6.6-7.4-10-10.1c-0.9-0.7-1.6-1.6-2.2-2.6c-0.5-1-0.8-2.2-0.9-3.3c-0.1-4-0.3-10,0.2-10.9c0.7-1.5,9.6-10.3,9.6-10.3
	L206.5,110z"/>
<path class="st12" d="M207.1,109.7c0,0,18.4,4,20.1,6.7c0,0.1,0.1,0.1,0.1,0.2c0.5,0.3,1.3,8.2,6.5,7.2c5.2-1,16.8,8,16.8,8
	s8,0.8,10.8,8.3c2.8,7.5,7.5,22.2,10.6,24c3.1,1.8-1.3,14.5-4.9,15.8c-3.6,1.3-16.5,4.4-17.6,2.8c-1.1-1.6-11.1-3.4-10.5-8.7
	c0.7-5.2,4.6-10.1,1.5-13.2c-3.1-3.1-5.1-11.3-9.6-12.9c-4.6-1.6-12.7-2.1-17.6,1.1c-4.9,3.3-11.3,3.8-11.3,3.8s-9.5-6.3-11.2-10.4
	c-1.1-2.8-6.6-7.4-10-10.1c-0.9-0.7-1.6-1.6-2.2-2.6c-0.5-1-0.8-2.2-0.9-3.3c-0.1-4-0.3-10,0.2-10.9c0.7-1.5,9.6-10.3,9.6-10.3
	L207.1,109.7z"/>
<path class="st11" d="M164.9,145.1c-0.2,0.2-2.9,4.2,0.3,6.5c0.9,0.7,1.9,1.1,3.1,1.3c1.1,0.2,2.2,0.1,3.3-0.2L164.9,145.1z"/>
<path class="st8" d="M180.5,109.5c0,0,4.4-8.8,13.9-6.5c9.5,2.3,23.2,10.6,26.5,18.9c3.3,8.3-12.4,18.5-12.4,18.5l-18.6,8.7
	c0,0-5.7,2.3-7.3,1.5c-1.6-0.8-9.5,6.2-9.5,6.2s-8.8-8.5-8.8-11.4c0-2.9,13.7-7.4,13.7-7.4s16.3-3.1,16.2-6.2c0,0,2.8-3.3,1.3-4.2
	c-1.5-1-17.2-5.6-17.2-5.6S177.6,111.5,180.5,109.5z"/>
<path class="st12" d="M180,109.1c0,0,4.4-8.8,13.9-6.5c9.5,2.3,23.2,10.6,26.5,18.9c3.3,8.3-12.4,18.5-12.4,18.5l-18.6,8.7
	c0,0-5.7,2.3-7.3,1.5c-1.6-0.8-9.5,6.2-9.5,6.2s-8.8-8.5-8.8-11.4c0-2.9,13.7-7.4,13.7-7.4s16.3-3.1,16.2-6.2c0,0,2.8-3.3,1.3-4.2
	c-1.5-1-17.2-5.6-17.2-5.6S177.1,111,180,109.1z"/>
<path class="st8" d="M159.1,127.3c2.6-1.6,5.6-2.6,8.7-2.9c0.9-1.7-1.5-3.6-1.5-5.7c0-1.7-0.7-2.4-1.3-3.9c-2.3-0.8-0.7-3-0.7-3
	L159.1,127.3z"/>
<path class="st11" d="M155.2,132.9c6.9,0,12.6-5.6,12.6-12.6c0-6.9-5.6-12.6-12.6-12.6c-6.9,0-12.6,5.6-12.6,12.6
	C142.6,127.3,148.3,132.9,155.2,132.9z"/>
<path class="st14" d="M145.8,125.5c2.8-2.2,6.5-2.9,10-3.2c2.2-0.2,4.5-0.3,6.6-0.9c1.2-0.4,2.4-0.9,3.5-1.6
	c1.5-0.8,3.1-1.6,4.1-2.9c1.6-2.1,1.6-5,2.6-7.5c1.8-4.5,6.9-6.8,11.6-7.4c2.8-0.4,5.8-0.4,8-2.1c1.1-0.9,1.9-2.2,2.2-3.6
	c0.1-0.3,0.1-0.6-0.1-0.9c-0.1-0.2-0.3-0.3-0.5-0.4c-2.9-1.5-6.3-1.1-9.6-1.2c-5.3-0.1-10.5-1.6-15.6-2.9c-2.2-0.6-4.5-1.1-6.6-0.3
	c-2,0.8-3.3,2.6-4.9,4c-6.5,5.7-17.3,4.9-23.1,11.4c-1.3,1.5-2.3,3.5-1.9,5.5c0.2,0.8,0.6,1.5,0.8,2.3c0.3,1.6-0.6,3.1-1.4,4.6
	c-0.8,1.4-1.4,3.2-0.7,4.6c1.1,2.2,4.5,2.1,6.2,3.8c0.8,0.8,1.2,2,2,2.8c1.4,1.2,3.4,1.1,5.3,1c1-0.1,2.6-0.4,2.3-1.7
	C146.5,127.5,144.9,127,145.8,125.5z"/>
<path class="st0" d="M141.4,133c0,0,8.6-6.4,14-4.3c5.4,2.1,6.9,3.3,10.3,2c3.4-1.3,4.9,2.6,4.9,2.6l-21.4,6.2L141.4,133z"/>
<path class="st13" d="M129.8,144.3c0,0,3.9-10.1,8.7-12.1L129.8,144.3z"/>
<path class="st13" d="M124.8,141c0,0,3.9-10.1,8.7-12.1L124.8,141z"/>
<path class="st13" d="M216.5,143.4c0,0,13.9-6.7,23.2-6c9.3,0.7,10.9-5.2,10.9-5.2"/>
<path class="st1" d="M156.6,310.6c-1.2-1.1-2.2-2.3-2.6-3.9c-0.3-1.5,0.3-3.4,1.8-4c1.6-0.6,3.4,0.5,4.8,1.7
	c1.3,1.2,2.9,2.5,4.6,2.2c-0.9-0.8-1.6-1.9-2-3c-0.4-1.2-0.5-2.4-0.2-3.6c0.1-0.5,0.3-1,0.6-1.3c0.9-1,2.6-0.6,3.7,0.2
	c3.5,2.5,4.5,7.2,4.5,11.5c0.4-1.5,0.1-3.1,0.1-4.7c0-1.6,0.4-3.3,1.8-4.2c0.8-0.4,1.8-0.7,2.7-0.6c1.6-0.1,3.3,0.1,4.4,1.2
	c1.3,1.4,1,3.8-0.2,5.4c-1.2,1.6-2.9,2.6-4.5,3.6c-1.3,0.8-2.4,1.8-3.2,3.1c-0.1,0.2-0.2,0.4-0.2,0.6h-9.8
	C160.4,313.7,158.4,312.3,156.6,310.6z"/>
<path class="st1" d="M383.6,266.5c-0.8-0.6-1.3-1.5-1.6-2.4c-0.2-1,0.2-2.1,1.1-2.5c1-0.4,2.1,0.3,3,1c0.8,0.7,1.8,1.5,2.9,1.4
	c-0.6-0.5-1-1.2-1.2-1.9c-0.2-0.7-0.3-1.5-0.1-2.2c0-0.3,0.2-0.6,0.4-0.8c0.6-0.6,1.6-0.3,2.3,0.1c2.2,1.5,2.8,4.5,2.8,7.1
	c0.2-1,0-2,0-2.9c0-1,0.3-2.1,1.1-2.6c0.5-0.3,1.1-0.4,1.7-0.4c1,0,2.1,0.1,2.7,0.8c0.8,0.9,0.6,2.4-0.1,3.3c-0.7,1-1.8,1.6-2.8,2.3
	c-0.8,0.5-1.5,1.1-2,1.9c-0.1,0.1-0.1,0.2-0.1,0.3h-6.1C386,268.4,384.7,267.5,383.6,266.5z"/>
</svg>
