<?xml version="1.0" encoding="utf-8"?>
<!-- Generator: Adobe Illustrator 23.1.1, SVG Export Plug-In . SVG Version: 6.00 Build 0)  -->
<svg version="1.1" id="Layer_1" xmlns="http://www.w3.org/2000/svg" xmlns:xlink="http://www.w3.org/1999/xlink" x="0px" y="0px"
	 viewBox="0 0 538 363" style="enable-background:new 0 0 538 363;" xml:space="preserve">
<style type="text/css">
	.st0{fill:#3F3D56;}
	.st1{fill:#9013FE;}
	.st2{fill:url(#SVGID_1_);}
	.st3{fill:#E7EFFD;}
	.st4{opacity:0.3;enable-background:new    ;}
	.st5{opacity:0.4;enable-background:new    ;}
	.st6{fill:url(#SVGID_2_);}
	.st7{fill:#65617D;}
	.st8{opacity:0.1;enable-background:new    ;}
	.st9{fill:#FBBEBE;}
	.st10{opacity:0.2;}
	.st11{opacity:0.2;enable-background:new    ;}
	.st12{fill:#D4DFEC;}
</style>
<path class="st0" d="M536.5,262.2c0,21.5-118.4,100.8-266.3,100.8S6,278.5,6,257c0-21.5,116.4,28,264.3,28S536.5,240.7,536.5,262.2z
	"/>
<path class="st1" d="M538,253.6c0,0.3,0,0.6,0,0.9c-0.3,8.9-5.3,17.8-14.4,24.1c-9.6,6.7-22.6,10.2-35.8,12.4
	c-2.1,0.3-4.2,0.7-6.2,1c-1.1,0.1-2.1,0.3-3.2,0.4c-29.5,3.9-59.7,4.6-89.7,5.3c-31.4,0.8-62.8,1.5-94.3,1.9l-6.2,0.1
	c-47.7,0.5-95.4,0.1-142.9-2.6c-14.7-0.8-29.6-1.9-44.3-3.8c-2.1-0.3-4.2-0.5-6.2-0.8c-19.4-2.8-38.2-7-55.3-14
	c-4-1.6-8-3.4-11.9-5.5c-10.8-5.7-19.8-13-24.3-21.8c-2.6-5.2-3.7-11-3.1-16.8c0.2-2.1,0.6-4.2,1.1-6.2c1.4-5.1,3.4-9.9,6.1-14.4
	c7-11.8,17.5-22.5,26.6-33.6c19.4-23.7,32-53.7,14.1-78c-5.1-7-12.5-13.1-16.7-20.4c-2.2-3.9-3.6-8.3-4.1-12.8
	c-0.2-2.1-0.3-4.2-0.3-6.2c0.2-4.9,0.8-9.7,1.8-14.5c2.9-14.9,8.3-31,25.1-40.3C65.4,1.6,80-0.3,94.8,0c2.1,0,4.2,0.1,6.2,0.3
	c5.7,0.4,11.3,1.1,16.8,1.9c33.7,5.4,64.7,16.6,96.1,26.8c23.9,7.7,48.6,14.9,74.3,18.4c2.1,0.3,4.2,0.5,6.2,0.8
	c6,0.7,12.1,1.1,18.2,1.3c30.4,0.9,66-5.7,86.2-22.9c19.5-16.6,56.2-17.9,82.7-8l0.4,0.2c2,0.8,3.9,1.6,5.8,2.5
	c19.6,9.2,32.7,25,34.6,41.5c0.2,2.1,0.3,4.1,0.2,6.2c0,0,0,0,0,0.1c-1.3,20.3-17.9,37.4-34.7,54.5c-2.1,2.1-4.2,4.2-6.2,6.3
	c-5.5,5.6-10.8,11.3-15.4,17.1c-2.1,2.6-4,5.4-5.8,8.3c-1.6,2.7-3,5.5-4.1,8.4c-1.2,3-1.9,6.2-2.3,9.4c-0.5,4.6,0.4,9.2,2.4,13.4
	l0,0.1c4.5,8.9,14,15.3,25,20.9c2,1,4.1,2,6.2,3c12,5.6,24.8,10.9,34.6,17.9c2.6,1.8,5.1,3.9,7.4,6.2c0.9,1,1.8,1.9,2.6,3
	c3.6,4.5,5.6,10.1,5.7,15.9C538,253.4,538,253.5,538,253.6z"/>
<linearGradient id="SVGID_1_" gradientUnits="userSpaceOnUse" x1="269" y1="64.0555" x2="269" y2="364" gradientTransform="matrix(1 0 0 -1 2.914467e-07 364)">
	<stop  offset="0.2" style="stop-color:#808080;stop-opacity:0.4"/>
	<stop  offset="0.46" style="stop-color:#808080;stop-opacity:0.5"/>
	<stop  offset="1" style="stop-color:#000000;stop-opacity:0.6"/>
</linearGradient>
<path class="st2" d="M538,253.6c0,0.3,0,0.6,0,0.9c-0.3,8.9-5.3,17.8-14.4,24.1c-9.6,6.7-22.6,10.2-35.8,12.4
	c-2.1,0.3-4.2,0.7-6.2,1c-1.1,0.1-2.1,0.3-3.2,0.4c-29.5,3.9-59.7,4.6-89.7,5.3c-31.4,0.8-62.8,1.5-94.3,1.9l-6.2,0.1
	c-47.7,0.5-95.4,0.1-142.9-2.6c-14.7-0.8-29.6-1.9-44.3-3.8c-2.1-0.3-4.2-0.5-6.2-0.8c-19.4-2.8-38.2-7-55.3-14
	c-4-1.6-8-3.4-11.9-5.5c-10.8-5.7-19.8-13-24.3-21.8c-2.6-5.2-3.7-11-3.1-16.8c0.2-2.1,0.6-4.2,1.1-6.2c1.4-5.1,3.4-9.9,6.1-14.4
	c7-11.8,17.5-22.5,26.6-33.6c19.4-23.7,32-53.7,14.1-78c-5.1-7-12.5-13.1-16.7-20.4c-2.2-3.9-3.6-8.3-4.1-12.8
	c-0.2-2.1-0.3-4.2-0.3-6.2c0.2-4.9,0.8-9.7,1.8-14.5c2.9-14.9,8.3-31,25.1-40.3C65.4,1.6,80-0.3,94.8,0c2.1,0,4.2,0.1,6.2,0.3
	c5.7,0.4,11.3,1.1,16.8,1.9c33.7,5.4,64.7,16.6,96.1,26.8c23.9,7.7,48.6,14.9,74.3,18.4c2.1,0.3,4.2,0.5,6.2,0.8
	c6,0.7,12.1,1.1,18.2,1.3c30.4,0.9,66-5.7,86.2-22.9c19.5-16.6,56.2-17.9,82.7-8l0.4,0.2c2,0.8,3.9,1.6,5.8,2.5
	c19.6,9.2,32.7,25,34.6,41.5c0.2,2.1,0.3,4.1,0.2,6.2c0,0,0,0,0,0.1c-1.3,20.3-17.9,37.4-34.7,54.5c-2.1,2.1-4.2,4.2-6.2,6.3
	c-5.5,5.6-10.8,11.3-15.4,17.1c-2.1,2.6-4,5.4-5.8,8.3c-1.6,2.7-3,5.5-4.1,8.4c-1.2,3-1.9,6.2-2.3,9.4c-0.5,4.6,0.4,9.2,2.4,13.4
	l0,0.1c4.5,8.9,14,15.3,25,20.9c2,1,4.1,2,6.2,3c12,5.6,24.8,10.9,34.6,17.9c2.6,1.8,5.1,3.9,7.4,6.2c0.9,1,1.8,1.9,2.6,3
	c3.6,4.5,5.6,10.1,5.7,15.9C538,253.4,538,253.5,538,253.6z"/>
<path class="st0" d="M487.8,21.2v102.2c-2.1,2.1-4.2,4.2-6.2,6.3V18.6L487.8,21.2z"/>
<path class="st0" d="M522.5,68.9C522.5,68.9,522.5,69,522.5,68.9L27.2,69c-0.2-2.1-0.3-4.2-0.3-6.2h495.3
	C522.6,64.8,522.6,66.9,522.5,68.9z"/>
<path class="st3" d="M117,36.7c1,0,1.8-0.8,1.8-1.8c0-1-0.8-1.8-1.8-1.8c-1,0-1.8,0.8-1.8,1.8C115.2,35.8,116,36.7,117,36.7z"/>
<path class="st3" d="M58.8,33c1,0,1.8-0.8,1.8-1.8c0-1-0.8-1.8-1.8-1.8c-1,0-1.8,0.8-1.8,1.8C57,32.2,57.8,33,58.8,33z"/>
<path class="st3" d="M137.5,35.6c0.4,0,0.8-0.3,0.8-0.8c0-0.4-0.3-0.8-0.8-0.8c-0.4,0-0.8,0.3-0.8,0.8
	C136.8,35.3,137.1,35.6,137.5,35.6z"/>
<path class="st3" d="M79.1,33.8c0.4,0,0.8-0.3,0.8-0.8c0-0.4-0.3-0.8-0.8-0.8c-0.4,0-0.8,0.3-0.8,0.8C78.3,33.4,78.6,33.8,79.1,33.8
	z"/>
<path class="st3" d="M78.3,88.3c0.4,0,0.8-0.3,0.8-0.8s-0.3-0.8-0.8-0.8c-0.4,0-0.8,0.3-0.8,0.8S77.8,88.3,78.3,88.3z"/>
<path class="st3" d="M438.2,47.1c0.4,0,0.8-0.3,0.8-0.8s-0.4-0.8-0.8-0.8s-0.8,0.3-0.8,0.8S437.8,47.1,438.2,47.1z"/>
<path class="st3" d="M173.9,47.8c0.4,0,0.8-0.3,0.8-0.8c0-0.4-0.3-0.8-0.8-0.8s-0.8,0.3-0.8,0.8C173.1,47.5,173.5,47.8,173.9,47.8z"
	/>
<path class="st3" d="M399.8,46.3c0.4,0,0.8-0.3,0.8-0.8c0-0.4-0.4-0.8-0.8-0.8s-0.8,0.3-0.8,0.8C399,45.9,399.4,46.3,399.8,46.3z"/>
<path class="st3" d="M498,48.6c0.4,0,0.8-0.3,0.8-0.8c0-0.4-0.3-0.8-0.8-0.8s-0.8,0.3-0.8,0.8C497.2,48.3,497.6,48.6,498,48.6z"/>
<path class="st1" d="M538,253.6c0,0.3,0,0.6,0,0.9c-0.2,9-5.2,18-14.4,24.3c-9.6,6.7-22.6,10.2-35.8,12.4c-2.1,0.3-4.2,0.7-6.2,1
	c-1.1,0.1-2.1,0.3-3.2,0.4c-7.3,1-14.6,1.7-21.9,2.3c-9.8,0.8-19.7,1.4-29.6,1.8c-12.7,0.6-25.4,0.9-38.2,1.2
	c-24.9,0.6-49.7,1.2-74.7,1.6l-8.8,0.1l-10.8,0.1l-6.2,0.1c-39.3,0.4-78.5,0.2-117.6-1.4c-2.6-0.1-5.2-0.2-7.8-0.3
	c-5.8-0.3-11.6-0.6-17.5-0.9c-11.7-0.7-23.4-1.5-35-2.7c-3.1-0.3-6.2-0.7-9.2-1.1c-2.1-0.3-4.2-0.5-6.2-0.8
	c-2.3-0.3-4.6-0.7-6.9-1.1c-17-2.8-33.3-6.8-48.5-12.9c-4-1.6-8-3.5-11.9-5.5v-85.4c2.2-2.5,4.3-5,6.3-7.5c2.5-3,4.8-6.2,7-9.4h46.9
	V142h82.7v63.6h134.6v-50.4h155.3c-1.6,2.6-2.9,5.3-4.1,8.1v0.3h-0.2c-1.2,3-1.9,6.2-2.3,9.4c-0.5,4.6,0.4,9.2,2.4,13.4v0.2l0,0.1
	c4.5,8.9,14,15.2,25,20.9c2,1,4.1,2,6.2,3c11.8,5.6,24.6,10.8,34.3,17.7l0.3,0.2c2.6,1.8,5,3.8,7.2,6c0.1,0.1,0.1,0.1,0.2,0.2
	c0.9,1,1.8,1.9,2.6,3c3.5,4.5,5.5,10,5.7,15.7C538,253.4,538,253.5,538,253.6z"/>
<path class="st4" d="M538,253.6c0,0.3,0,0.6,0,0.9c-0.2,9-5.2,18-14.4,24.3c-9.6,6.7-22.6,10.2-35.8,12.4c-2.1,0.3-4.2,0.7-6.2,1
	c-1.1,0.1-2.1,0.3-3.2,0.4c-7.3,1-14.6,1.7-21.9,2.3c-9.8,0.8-19.7,1.4-29.6,1.8c-12.7,0.6-25.4,0.9-38.2,1.2
	c-24.9,0.6-49.7,1.2-74.7,1.6l-8.8,0.1l-10.8,0.1l-6.2,0.1c-39.3,0.4-78.5,0.2-117.6-1.4c-2.6-0.1-5.2-0.2-7.8-0.3
	c-5.8-0.3-11.6-0.6-17.5-0.9c-11.7-0.7-23.4-1.5-35-2.7c-3.1-0.3-6.2-0.7-9.2-1.1c-2.1-0.3-4.2-0.5-6.2-0.8
	c-2.3-0.3-4.6-0.7-6.9-1.1c-17-2.8-33.3-6.8-48.5-12.9c-4-1.6-8-3.5-11.9-5.5v-85.4c2.2-2.5,4.3-5,6.3-7.5c2.5-3,4.8-6.2,7-9.4h46.9
	V142h82.7v63.6h134.6v-50.4h155.3c-1.6,2.6-2.9,5.3-4.1,8.1v0.3h-0.2c-1.2,3-1.9,6.2-2.3,9.4c-0.5,4.6,0.4,9.2,2.4,13.4v0.2l0,0.1
	c4.5,8.9,14,15.2,25,20.9c2,1,4.1,2,6.2,3c11.8,5.6,24.6,10.8,34.3,17.7l0.3,0.2c2.6,1.8,5,3.8,7.2,6c0.1,0.1,0.1,0.1,0.2,0.2
	c0.9,1,1.8,1.9,2.6,3c3.5,4.5,5.5,10,5.7,15.7C538,253.4,538,253.5,538,253.6z"/>
<path class="st5" d="M56.9,182.8H43v9.4h13.9V182.8z"/>
<path class="st5" d="M79.1,182.8H65.2v9.4h13.9V182.8z"/>
<path class="st5" d="M333.8,163.5h-13.9v9.4h13.9V163.5z"/>
<path class="st5" d="M371.2,163.5h-13.9v9.4h13.9V163.5z"/>
<path class="st5" d="M411.4,163.5h-13.9v9.4h13.9V163.5z"/>
<path class="st5" d="M333.8,192.1h-13.9v9.4h13.9V192.1z"/>
<path class="st5" d="M371.2,192.1h-13.9v9.4h13.9V192.1z"/>
<path class="st1" d="M411.4,192.1h-13.9v9.4h13.9V192.1z"/>
<path class="st5" d="M333.8,220.7h-13.9v9.4h13.9V220.7z"/>
<path class="st5" d="M371.2,220.7h-13.9v9.4h13.9V220.7z"/>
<path class="st5" d="M411.4,220.7h-13.9v9.4h13.9V220.7z"/>
<path class="st5" d="M333.8,249.4h-13.9v9.4h13.9V249.4z"/>
<path class="st5" d="M371.2,249.4h-13.9v9.4h13.9V249.4z"/>
<path class="st5" d="M411.4,249.4h-13.9v9.4h13.9V249.4z"/>
<path class="st5" d="M333.8,278h-13.9v9.4h13.9V278z"/>
<path class="st5" d="M371.2,278h-13.9v9.4h13.9V278z"/>
<path class="st5" d="M411.4,278h-13.9v9.4h13.9V278z"/>
<path class="st5" d="M456.3,163.6c-1.2,3-1.9,6.2-2.3,9.4h-7.6v-9.4H456.3z"/>
<path class="st1" d="M460.3,192.1h-13.9v9.4h13.9V192.1z"/>
<path class="st5" d="M460.3,220.7h-13.9v9.4h13.9V220.7z"/>
<path class="st5" d="M460.3,249.4h-13.9v9.4h13.9V249.4z"/>
<path class="st5" d="M460.3,278h-13.9v9.4h13.9V278z"/>
<path class="st5" d="M133.8,152.6H120v9.4h13.9V152.6z"/>
<path class="st1" d="M133.8,173.6H120v9.4h13.9V173.6z"/>
<path class="st5" d="M133.8,194.6H120v9.4h13.9V194.6z"/>
<path class="st5" d="M133.8,215.6H120v9.4h13.9V215.6z"/>
<path class="st5" d="M133.8,236.6H120v9.4h13.9V236.6z"/>
<path class="st5" d="M133.8,257.5H120v9.4h13.9V257.5z"/>
<path class="st5" d="M133.8,278.5H120v9.4h13.9V278.5z"/>
<path class="st5" d="M56.9,207.2H43v9.4h13.9V207.2z"/>
<path class="st5" d="M79.1,207.2H65.2v9.4h13.9V207.2z"/>
<path class="st5" d="M56.9,231.7H43v9.4h13.9V231.7z"/>
<path class="st5" d="M79.1,231.7H65.2v9.4h13.9V231.7z"/>
<path class="st5" d="M56.9,256.2H43v9.4h13.9V256.2z"/>
<path class="st5" d="M79.1,256.2H65.2v9.4h13.9V256.2z"/>
<path class="st5" d="M267.6,216.6h-69.3v8.4h69.3V216.6z"/>
<path class="st5" d="M267.6,243.3h-69.3v8.4h69.3V243.3z"/>
<path class="st5" d="M267.6,270h-69.3v8.4h69.3V270z"/>
<path class="st0" d="M101,0.3v293c-2.1-0.3-4.2-0.5-6.2-0.8V0C96.9,0.1,98.9,0.2,101,0.3z"/>
<path class="st0" d="M294.4,48.2v251.5l-6.2,0.1V47.4C290.2,47.7,292.3,48,294.4,48.2z"/>
<path class="st0" d="M529.7,234.4H0.2c0.2-2.1,0.6-4.2,1.1-6.2h521.2C525,230,527.5,232.1,529.7,234.4z"/>
<path class="st0" d="M481.5,207.2c2,1,4.1,2,6.2,3V291c-2.1,0.3-4.2,0.7-6.2,1V207.2z"/>
<path class="st3" d="M163.5,111.5h-1.2v-1.2h-0.2v1.2h-1.2v0.2h1.2v1.2h0.2v-1.2h1.2V111.5z"/>
<path class="st3" d="M411.4,86.7h-1.2v-1.2H410v1.2h-1.2v0.2h1.2v1.2h0.2v-1.2h1.2V86.7z"/>
<path class="st3" d="M191.8,81.8h-1.2v-1.2h-0.2v1.2h-1.2v0.2h1.2v1.2h0.2v-1.2h1.2V81.8z"/>
<path class="st3" d="M190,158.9c0.4,0,0.8-0.3,0.8-0.8c0-0.4-0.4-0.8-0.8-0.8s-0.8,0.3-0.8,0.8C189.2,158.5,189.5,158.9,190,158.9z"
	/>
<path class="st3" d="M368,89.1c0.4,0,0.8-0.3,0.8-0.8s-0.3-0.8-0.8-0.8s-0.8,0.3-0.8,0.8S367.5,89.1,368,89.1z"/>
<path class="st3" d="M446.4,126.1c0.4,0,0.8-0.3,0.8-0.8c0-0.4-0.3-0.8-0.8-0.8s-0.8,0.3-0.8,0.8C445.6,125.8,446,126.1,446.4,126.1
	z"/>
<path class="st3" d="M323.6,132.8c0.4,0,0.8-0.3,0.8-0.8c0-0.4-0.4-0.8-0.8-0.8s-0.8,0.3-0.8,0.8
	C322.8,132.5,323.1,132.8,323.6,132.8z"/>
<linearGradient id="SVGID_2_" gradientUnits="userSpaceOnUse" x1="267.7095" y1="20.5801" x2="267.7095" y2="292.4883" gradientTransform="matrix(1 0 0 -1 2.914467e-07 364)">
	<stop  offset="0" style="stop-color:#808080;stop-opacity:0.25"/>
	<stop  offset="0.54" style="stop-color:#808080;stop-opacity:0.12"/>
	<stop  offset="1" style="stop-color:#808080;stop-opacity:0.1"/>
</linearGradient>
<path class="st6" d="M346.8,263.5c0,0-16.6,4-23.2,11.6c-2.2,2.5-5.5,4.3-8.9,5.6v-11.4c3.8-6.4,7.6-13.5,7.6-13.5
	c0.2-0.3,1.6-5.3,1.6-5.3c3.1-2.5-0.2-11-0.2-11s1.9-5.4,0.9-6.5c-1-1.1-0.2-3.9,0.7-5.1c0.9-1.2,0.7-2.8,0.7-3.9s-1.4-2.6-3.6-3.5
	s0.2-2.3,1.6-2.6c1.4-0.4,1.7-3.7,0.2-5.4c-1.6-1.8,0.2-2.8,1-4.7s-2.8-1.6-2.8-1.6v-17.7c0,0-1-5.8-2.1-15.9c-1-10.2-5-11.2-5-11.2
	c-2.1-0.7-4.2-1.5-6.2-2.5c-2.1-1-4.3-1.8-6.6-2.4c0,0-4.7,0-8.5-1.2c-3.8-1.2-5.8-1.3-5.8-1.3l-0.6-0.3c-4.7-2.4-8.4-6.3-10.5-11.2
	c-0.1-0.2-0.2-0.5-0.3-0.7c1-1.1,2-2.4,2.8-3.7v0c0,0.2,0,0.4,0,0.5c0,0.1,0,0.1,0,0.2c0,0.4,0,0.9,0,1.3v0
	c2.8-4.9,10.8-6,11.5-11.6c0-0.3,0.1-0.5,0.1-0.8v0c0-0.2,0-0.4,0-0.6c-0.1-1.6-0.6-3.1-0.7-4.7c0-0.5,0-0.9,0-1.4v0
	c0.4-4.3,3.6-8.1,5.1-12.3c0.4-1.1,0.7-2.3,0.8-3.5v0c0-0.4,0.1-0.7,0.1-1.1c0-0.1,0-0.2,0-0.3c0-0.3,0-0.5,0-0.8
	c0-2.2-0.5-4.4-1.5-6.5c-0.9-2-2.3-3.9-3.9-5.4c-2.8-2.4-6.4-3.9-8.3-7c-0.9-1.5-1.3-3.2-2.3-4.6c-1.8-2.7-5.2-3.7-8.4-4.1
	c-3.2-0.4-6.5-0.3-9.5-1.3c-2.2-0.7-4.1-2-6.3-2.6c-2.4-0.6-4.9-0.5-7.2,0.3c-2.3,0.8-4.3,2.4-5.7,4.4c-1.1,1.7-1.9,3.7-3.5,5
	c-3.2,2.7-8.6,1.5-11.3,4.6c-1.5,1.7-1.7,4-1.5,6.4c0,0,0,0.1,0,0.1c0,0.2,0,0.4,0.1,0.5c0,0.1,0,0.2,0,0.3c0,0.1,0,0.2,0,0.3
	c0.1,0.8,0.2,1.7,0.3,2.5c0,0.1,0,0.2,0,0.4l0.1,0.8c0,0.2,0,0.4,0,0.6c0,0.2,0,0.5,0,0.7c0,0.2,0,0.4,0,0.5
	c0.3,6.5-1.1,12.9-4,18.7c-2.6,5.1-6.5,9.9-7.2,15.6c-0.1,0.9-0.1,1.9-0.1,2.8c0,0.1,0,0.2,0,0.3c0,0.1,0,0.3,0,0.5
	c0,0.2,0,0.4,0.1,0.6c0,0.1,0,0.2,0,0.3c0,0.3,0.1,0.5,0.1,0.8l0,0.2c0.7,3.9,2.2,7.8,3.1,11.7c0.3,1.5,0.5,2.9,0.6,4.4c0,0,0,0,0,0
	c0,0.5,0.1,0.9,0.1,1.4c0,0.6,0,1.3,0,1.9c-1.3,0.5-2.7,0.9-4,1.2c-2.4,0.3-9.5,6.7-9,8.2s-3.2,12.6-3.3,12.9l-5.8,40.3
	c0,0-3.1,3-2.1,4.9c1,1.9-0.2,5.3-0.2,5.3s-5.2,2.3-4.1,3.7c1.2,1.4,0.6,4-0.2,5.8c-0.8,1.8-2.1,4.9,0,5.4s0.4,7.4,0.4,7.4
	s7.3-0.8,6.8,3.5c-0.2,1.4,5.1,5.2,7.3,6.7v20.9c-3-0.8-6.4-1.9-8.7-2.9c-4.5-2.1-29.8-6.1-35.3,6c-5.5,12.1,7.6,28.2,10.9,29.9
	c0,0,3.1,2.5,3.8,3.7c0.7,1.2,4.7,1.6,4.7,1.6s4.2,1.9,5.2,3c0.8,0.8,7.1,2.8,14.6,4.4c0,0-6.1,14,3.8,12.8c9.9-1.1,14.7-6,21.7-6
	c2.8,0,8-0.4,13.2-0.9c1.3,0.2,2.6,0.5,3.9,0.9c2.9,0.9,6,1.6,9,1.9c0,0,7.8,4.2,12,3.1c0.3-0.1,0.7-0.3,0.9-0.5h0.1
	c0.8-0.2,1.6-1,2.5-2.1c5.2,0.5,11.1,1.3,13.4,2.2c4.3,1.7,35.1-0.6,35.1-0.6s19.9,0.4,25.6,2.1c5.7,1.7,3.7-17.6-6.8-19.8
	c-2.8-0.6-5.7-0.8-8.5-0.8c0.7-0.8,1.4-1.6,2-2.4c3.8-0.3,6.3-0.6,6.3-0.6s10-4.9,15.8-7.9c3.7-2,6.9-4.6,9.7-7.7c0,0,5-3.2,7.1-4.4
	c2.1-1.2,3.1-5.3,3.1-5.3C386.8,258.7,346.8,263.5,346.8,263.5z M301.7,218.7c0-0.6,0-1.2,0-1.8
	C302.2,217.3,302.1,217.9,301.7,218.7L301.7,218.7z M301.8,231.1c0.4,0.6,0.8,1.1,1.1,1.5c1.1,1.5-0.9,2.1-0.8,4.5
	c0,0.5,0.1,1.3,0.1,2.1C302.1,235.7,301.9,232.8,301.8,231.1L301.8,231.1z"/>
<path class="st7" d="M211.6,286.3c0,0-9.7-2.3-14.2-4.3c-4.5-2.1-29.8-6.1-35.3,5.9c-5.5,12,7.6,27.9,10.9,29.6
	c3.3,1.7,35.3-22,35.3-22l25.3,10.7l4.8-16.6L211.6,286.3z"/>
<path class="st7" d="M314.5,289.6h-74.4c-9.9,0-17.9,8-17.9,17.9v2.6c0,9.9,8,17.9,17.9,17.9h74.4c9.9,0,17.9-8,17.9-17.9v-2.6
	C332.4,297.6,324.4,289.6,314.5,289.6z"/>
<path class="st8" d="M332.4,308.8c0,3.8-1.1,7.5-3.2,10.6c-0.7,1.1-1.5,2.1-2.4,3c-1.8,1.8-3.9,3.2-6.2,4.2c-2.3,1-4.8,1.5-7.3,1.5
	h-71.8c-5.1,0-9.9-2-13.5-5.6c-3.6-3.6-5.6-8.5-5.6-13.5s2-10,5.6-13.5c3.6-3.6,8.5-5.6,13.5-5.6h71.8c5.1,0,9.9,2,13.5,5.6
	C330.4,298.8,332.4,303.7,332.4,308.8z"/>
<path class="st9" d="M272.5,309.9c0,0-11,2.8-20,2.7c-9-0.1-51.1,17.4-51.1,17.4s-6.1,13.8,3.8,12.7c9.9-1.1,14.7-5.9,21.7-5.9
	c7,0,28.9-2.4,28.9-2.4l21.1-15.6L272.5,309.9z"/>
<path class="st9" d="M279.4,179.3l-19.8,3.9l-1.3,0.3c0,0-15.7-4.2-16.2-4.5c-0.5-0.3-14.7-19.5-14.7-19.5s7.2,0.1,12.8-3.2
	c0.2-0.1,0.4-0.2,0.6-0.4c2.5-1.5,4.4-3.8,5.3-6.5c0.1-0.3,0.2-0.6,0.3-0.9c0.6-2.3,0.6-5.1-0.2-8.5c-1.9-8.1,2.5-10.3,8.4-10.1
	c8.5,0.3,20.2,5.6,20.2,5.6c0.2,2.7,0.8,5.4,1.8,7.9c0.1,0.2,0.2,0.5,0.3,0.7c2.1,4.8,5.8,8.7,10.5,11l0.6,0.3
	c0.6,0.3,1.3,0.6,2,0.8C305.2,162,279.4,179.3,279.4,179.3z"/>
<path class="st8" d="M277,144.1c-3.8,4.3-8.9,7.1-14.5,8.1c-5.6,1-11.4,0-16.3-2.8c0.9-2.5,1-5.6,0.1-9.4
	c-4.7-19.8,28.6-4.5,28.6-4.5C275,138.4,275.8,141.4,277,144.1z"/>
<path class="st9" d="M283.2,126.5c0,4.7-1.3,9.2-3.8,13.2c-0.8,1.3-1.7,2.5-2.8,3.6c-4.4,4.8-10.4,7.7-16.9,8.1c-0.5,0-1,0-1.5,0
	c-4.9,0-9.8-1.5-13.9-4.2c-4.1-2.7-7.3-6.6-9.2-11.2c-1.9-4.6-2.4-9.6-1.4-14.4c1-4.8,3.3-9.3,6.8-12.8c3.5-3.5,7.9-5.9,12.8-6.8
	c4.8-1,9.9-0.5,14.4,1.4c4.6,1.9,8.5,5.1,11.2,9.2C281.8,116.7,283.2,121.6,283.2,126.5L283.2,126.5z"/>
<path class="st8" d="M279.4,179.3l-19.8,3.9l-1.3,0.3c0,0-15.7-4.2-16.2-4.5c-0.5-0.4-14.7-19.5-14.7-19.5s7.2,0.1,12.8-3.2
	c0.2-0.1,0.4-0.2,0.6-0.4c1.8,1.9,7.7,7.4,16.9,7.4c1.2,0,2.4-0.1,3.5-0.3c2.8-0.4,5.6-0.7,8.4-1c5.4-0.6,13.6-2.2,17.9-6.9l0.6,0.3
	c0.6,0.3,1.3,0.6,2,0.8C305.2,162,279.4,179.3,279.4,179.3z"/>
<path class="st1" d="M301.7,230c0.2,3.8,2.9,46.8,2.9,46.8h-86.5l0.6-27.1l0.5-21.7l0.2-7.1l0.7-24.6l-2.5-2.2l-13.6-12
	c0.1-0.3,3.8-11.3,3.3-12.8c-0.5-1.5,6.6-7.8,9-8.1c1.4-0.3,2.7-0.7,4.1-1.2c4.1-1.5,9.5-3.6,10.1-3.2c0.8,0.5,9.4-0.3,9.7-0.4
	c0,0,6.3,8.1,17.5,8.1c1.2,0,2.4-0.1,3.5-0.3c2.8-0.4,5.6-0.7,8.4-1c5.6-0.6,14.4-2.4,18.5-7.7c0,0,2,0.1,5.8,1.2s8.5,1.2,8.5,1.2
	c2.3,0.6,4.5,1.4,6.6,2.4c2,1,4.1,1.8,6.2,2.4c0,0,4,1,5,11.1c1,10.1,2.1,15.8,2.1,15.8l-20.6,17.9
	C301.7,207.4,301.6,226.1,301.7,230z"/>
<path class="st9" d="M204,260l3,4.9l11.3,4l7.8-14.2l-7.2-4.9l-11.5-4.5l-6.6,3.8L204,260z"/>
<path class="st7" d="M300.9,283.9c0,0,16.1-1.2,22.7-8.7c6.6-7.5,23.2-11.4,23.2-11.4s40-4.7,24.2,30.7c0,0-1,4-3.1,5.2
	c-2.1,1.2-7.1,4.3-7.1,4.3l-61.5-5.4L300.9,283.9z"/>
<path class="st8" d="M332.4,308.8c0,3.8-1.1,7.5-3.2,10.6c-10.3,0.9-33.3,3.1-38,4.4c-5.9,1.6-17.8-1.2-19.1-1.5l-0.1,0
	c0,0-2.3-7-3.4-11.4c-0.5-2-0.7-3.5-0.4-3.6c1-0.3,10.6-2.9,10.4-1.5c-0.2,1.5,28.6-11.2,28.6-11.2l0.9,11.1
	C310.9,308.9,332.4,303.9,332.4,308.8z"/>
<path class="st7" d="M362,299.5l-1.2,4.5c-2.8,3.1-6,5.7-9.7,7.6c-5.7,2.9-15.8,7.8-15.8,7.8s-36.9,3.1-43.1,4.9
	c-6.2,1.7-19.2-1.6-19.2-1.6s-4.8-14.7-3.8-15.1c1-0.3,10.6-2.9,10.4-1.5c-0.2,1.5,28.6-11.2,28.6-11.2L362,299.5z"/>
<path class="st9" d="M259.3,338.4c0,0,18.1,1.3,22.5,2.9c4.3,1.6,35.1-0.6,35.1-0.6s19.9,0.4,25.6,2.1c5.7,1.7,3.7-17.5-6.8-19.6
	c-10.5-2.1-25.4,1-25.4,1s-16.7-2.2-18.8-2.4c-2-0.3-15.4,0.1-15.4,0.1L259.3,338.4z"/>
<path class="st8" d="M188,290.5c0,0,24,2.2,30.6,6.1L188,290.5z"/>
<path class="st8" d="M337.5,274.8c0,0-18.8,4.6-26.1,11.3L337.5,274.8z"/>
<path class="st8" d="M189.4,285c0.4,0.1,11,1.5,10.8,2.5C199.9,288.6,189.4,285,189.4,285z"/>
<path class="st8" d="M172.6,311.8l1.4,5.2c0,0,3.1,2.4,3.8,3.6c0.7,1.2,4.7,1.6,4.7,1.6s4.2,1.9,5.2,2.9c1,1,12.3,4.3,22.9,5.7
	c10.6,1.4,30.1,4,34.3,5.4c2.9,0.9,6,1.5,9,1.9c0,0,7.8,4.2,12,3.1c4.2-1,11.3-19.9,11.3-19.9s-27.4-6.4-28.2-8.5
	c-0.9-2.1-27.2-11.8-27.2-11.8l-15.6,0.4L172.6,311.8z"/>
<path class="st7" d="M171.6,312.3l1.4,5.2c0,0,3.1,2.4,3.8,3.6c0.7,1.2,4.7,1.6,4.7,1.6s4.2,1.9,5.2,2.9c1,1,12.3,4.3,22.9,5.7
	c10.6,1.4,30.2,4,34.3,5.4c2.9,0.9,6,1.5,9,1.9c0,0,7.8,4.2,12,3.1c4.2-1,11.3-19.9,11.3-19.9s-27.4-6.4-28.2-8.5
	c-0.9-2.1-39.5-17.9-39.5-17.9l-12.1-2.8L171.6,312.3z"/>
<path class="st1" d="M207,180.4l-3,1.7l-5.8,39.9c0,0-3.1,2.9-2.1,4.9c1,1.9-0.2,5.2-0.2,5.2s-5.2,2.3-4.1,3.6
	c1.2,1.4,0.6,4-0.2,5.7c-0.8,1.7-2.1,4.8,0,5.4c2.1,0.5,0.4,7.3,0.4,7.3s7.3-0.8,6.8,3.5c-0.2,1.7,8.3,7.3,8.3,7.3
	s-9.6-17.5,12-15.1l1.9-9.9c0,0,1.9-5.6,0-7.3c-1.9-1.7,0.4-10,0.4-10l0.4-35.8L207,180.4z"/>
<path class="st8" d="M202.3,231.9c0.4,0.6,12.1,1.9,12.8,4C215.9,238,202.3,231.9,202.3,231.9z"/>
<path class="st8" d="M198.6,241.8c0,0,1.6-5,5.3-4.1C207.7,238.6,198.6,241.8,198.6,241.8z"/>
<path class="st8" d="M196.6,249c0,0,2.8-6.6,6.6-6.1C207,243.4,196.6,249,196.6,249z"/>
<path class="st9" d="M323.6,248.9l-1.2,7.3c0,0-12.5,22.9-14.7,23.2c-2.3,0.3-14.5-15.3-14.5-15.3l-3.3-15.3l13-2.5l5.8-5.7
	C308.5,240.7,323,242.1,323.6,248.9z"/>
<path class="st1" d="M317.7,186.3l4.7,3.3v17.5c0,0,3.6-0.3,2.8,1.6c-0.9,1.9-2.6,2.9-1,4.7c1.6,1.7,1.2,5-0.2,5.4
	c-1.4,0.3-3.8,1.7-1.6,2.6c2.2,0.9,3.6,2.4,3.6,3.5s0.2,2.6-0.7,3.8c-0.9,1.2-1.7,4-0.7,5c1,1-0.9,6.4-0.9,6.4s3.3,8.5,0.2,10.9
	c0,0-1.4,4.9-1.6,5.2c0,0,2.2-16.9-19.6-9.7c0,0-0.4-6.4-0.6-8.8c-0.1-2.4,1.9-3.1,0.8-4.5c-1.1-1.4-3.9-4.7-2.6-5.5
	c1.3-0.9,0.9-2.4,0.3-3.6c-0.5-1.2-2.4-1.2-0.7-2.7c1.7-1.5,2.6-2.9,1.7-3.6c-1-0.7-2.7-3-1.3-4c1.3-1,1.4-16.1,1.4-16.1
	S307.3,175.3,317.7,186.3z"/>
<path class="st8" d="M315.5,216.1c0,0,6.7-1.8,6.9,0C322.6,217.9,315.5,216.1,315.5,216.1z"/>
<path class="st8" d="M308,221.1c0,0,9.1-2.3,10.3-0.5C319.4,222.3,308,221.1,308,221.1z"/>
<path class="st8" d="M306,225.9c0,0,13.7-1.9,14.6,0.9S306,225.9,306,225.9z"/>
<path class="st8" d="M308,231.9c0.5,0.1,13.2,1,13.4,3.4C321.7,237.7,308,231.9,308,231.9z"/>
<path class="st0" d="M309.6,239.7h-98.5c-2.8,0-5.1,2.3-5.1,5.1v51.6c0,2.8,2.3,5.1,5.1,5.1h98.5c2.8,0,5.1-2.3,5.1-5.1v-51.6
	C314.7,242,312.4,239.7,309.6,239.7z"/>
<path class="st3" d="M260.4,274.6c2.2,0,4-1.8,4-4c0-2.2-1.8-4-4-4c-2.2,0-4,1.8-4,4C256.4,272.8,258.2,274.6,260.4,274.6z"/>
<path class="st8" d="M224.3,201.8c0,0,10.4,8,18.5,1.9C242.7,203.7,229.1,205,224.3,201.8z"/>
<path class="st8" d="M277,204c0,0,10.4,8,18.5,1.9C295.5,205.9,281.9,207.1,277,204z"/>
<path class="st8" d="M283.2,126.5c0,4.7-1.3,9.2-3.8,13.2c-0.2-7-1.8-13.9-5.6-19.7c-3.5-5.3-14-14.6-21.2-12
	c-0.8,0.3-1.4,0.7-2,1.3c-0.5,0.6-1,1.3-1.2,2.1c-0.7,2.7,1.4,3.9,2.7,6c2.3,3.7,3.2,8.1,2.5,12.5c-0.1,0.6-0.2,1.2-0.4,1.7
	c-1.1,4.3-3.7,9.2-1.1,12.7c1.9,2.4,5.9,3.3,6.5,6.3c0,0.3,0.1,0.6,0,0.9c-0.1,2-1.9,3.8-2.6,5.8c-0.9,2.4-0.4,4.7,0.5,7.1
	c1.2,3.1,3.1,6.2,3.6,9.5c0.5,3.3-0.5,6.3-1.7,9.4c-1.1,2.9-2.4,5.8-2.9,8.8c-0.8,5.8,1.3,12.4-2.4,17c-0.4,0.6-0.9,0.9-1.6,1.1
	c-2.3,0.2-1.9-3.9-3.8-5.3c0.2,2.4,0.4,5-0.5,7.2c-0.9,2.3-3.2,4.2-5.6,3.8l-0.8-5.4c-1.6,1.6-3.6,2.8-5.8,3.6
	c0.9-5.8,2.9-11.3,6-16.3c-6.1,2.9-9.7,9.3-12.8,15.3c-2,3.7-4,7.8-3.3,12c0.3,1.7,1,3.3,1.2,5c0.2,1.7-0.5,3.7-2.1,4.4
	c-1.4,0.6-3-0.1-4-1.2l-0.2-0.2c-0.1-0.1-0.2-0.3-0.3-0.4c-0.2-0.3-0.3-0.5-0.5-0.8c-0.4-1-0.8-2.1-1-3.2l-0.1-0.5
	c-1.6-7.1-3.1-14.4-1.9-21.6c0.4-2.6,1.2-5.3,1.1-7.9c-0.1-1.5-0.4-3-0.9-4.4c-1.4-4-4.1-7.6-5.7-11.6c0,0,0-0.1,0-0.1
	c-0.8-2.1-1.2-4.8,0.3-6.5c0.8-0.9,1.9-1.3,2.9-1.9c3-2,4.4-5.7,4.9-9.3c0.3-1.6,0.4-3.2,0.4-4.9c4.1-1.5,9.5-3.6,10.1-3.2
	c0.8,0.5,9.4-0.3,9.7-0.4c2.6-1.5,4.8-3.7,6-6.9c0.1-0.3,0.2-0.6,0.3-0.9c-3.9-2.1-7.1-5.2-9.4-8.9c-2.3-3.8-3.6-8.1-3.7-12.5
	c-0.1-4.4,1-8.8,3.1-12.6c2.1-3.9,5.3-7.1,9-9.3c3.8-2.3,8.1-3.5,12.5-3.5c4.4,0,8.8,1.1,12.6,3.3c3.8,2.2,7,5.3,9.2,9.1
	C282.1,117.8,283.3,122.1,283.2,126.5L283.2,126.5z"/>
<path class="st0" d="M254.4,130.5c-1.1,4.3-3.7,9.2-1.1,12.7c1.9,2.4,5.9,3.3,6.4,6.3c0.4,2.4-1.7,4.4-2.6,6.7
	c-2.1,5.4,3.3,10.8,4.1,16.6c0.9,6.3-3.7,12-4.6,18.2c-0.8,5.8,1.3,12.4-2.4,17c-0.4,0.6-0.9,0.9-1.6,1.1c-2.3,0.2-1.9-3.9-3.8-5.3
	c0.2,2.4,0.4,5-0.5,7.2c-0.9,2.3-3.2,4.2-5.6,3.8l-0.8-5.5c-1.6,1.6-3.6,2.8-5.8,3.6c0.9-5.8,2.9-11.3,6-16.3
	c-6.1,2.9-9.7,9.3-12.8,15.3c-2,3.7-4,7.8-3.3,12c0.3,1.7,1,3.3,1.2,5c0.2,1.7-0.5,3.7-2.1,4.4c-1.5,0.6-3.2-0.2-4.2-1.5
	c-1-1.3-1.4-2.9-1.7-4.4c-1.7-7.2-3.2-14.7-2-22c0.4-2.6,1.2-5.3,1.1-7.9c-0.2-5.9-4.5-10.7-6.6-16.1c-0.8-2.1-1.2-4.8,0.3-6.5
	c0.8-0.9,1.9-1.3,2.9-1.9c3-2,4.4-5.7,4.9-9.3c0.6-3.8,0.5-7.8-0.3-11.6c-1.2-5.7-4-11.3-3.3-17.1c0.7-5.7,4.6-10.4,7.2-15.5
	c3.4-6.6,4.7-14.1,3.7-21.4c-0.5-3.4-1.2-7.4,1.1-9.9c2.8-3.1,8.2-1.9,11.3-4.6c1.6-1.3,2.3-3.3,3.5-4.9c1.4-2,3.4-3.5,5.8-4.3
	s4.8-0.9,7.2-0.3c2.2,0.6,4.1,1.9,6.3,2.6c3,1,6.3,0.9,9.5,1.2c3.2,0.4,6.5,1.5,8.4,4.1c1,1.4,1.4,3.1,2.3,4.5
	c1.9,3.1,5.6,4.6,8.3,7c2.4,2.1,4.1,4.9,4.9,8c0.8,3.1,0.7,6.3-0.3,9.3c-1.6,4.6-5.5,8.7-5.1,13.5c0.1,2,1,4,0.7,6
	c-0.8,5.5-8.8,6.6-11.5,11.5c0.2-7.9-1.3-16.1-5.6-22.8c-3.5-5.3-14-14.6-21.2-12.1c-0.8,0.3-1.4,0.7-2,1.3c-0.5,0.6-1,1.3-1.2,2.1
	c-0.7,2.7,1.4,3.9,2.7,6c1.3,2.1,2.1,4.4,2.5,6.9C255.1,125.7,255,128.2,254.4,130.5z"/>
<g class="st10">
	<path class="st11" d="M220.4,158c0.1-2.5-0.2-5-0.7-7.4c-1-4.9-3.2-9.6-3.4-14.5c-0.3,5.4,2.3,10.7,3.4,16
		C220.1,154.1,220.3,156.1,220.4,158z"/>
	<path class="st11" d="M241,197.4c0.4-0.8,0.9-1.5,1.3-2.3c-6.1,2.9-9.7,9.3-12.8,15.3c-1.8,3.5-3.7,7.2-3.4,11.1
		c0.2-3.3,1.9-6.5,3.4-9.5C232.4,206.4,235.7,200.6,241,197.4z"/>
	<path class="st11" d="M227.3,228.8c-0.2,1.3-0.8,2.6-2,3c-1.5,0.6-3.2-0.2-4.2-1.5c-1-1.3-1.4-2.9-1.7-4.4
		c-1.2-5.2-2.3-10.5-2.4-15.7c-0.1,5.8,1.1,11.6,2.4,17.3c0.4,1.5,0.7,3.2,1.7,4.4c1,1.3,2.7,2.1,4.2,1.5c1.6-0.7,2.2-2.6,2.1-4.4
		C227.3,228.9,227.3,228.8,227.3,228.8z"/>
	<path class="st11" d="M254.9,125.3c-0.1,1.2-0.2,2.5-0.6,3.7c-0.8,3.2-2.5,6.7-2.2,9.7c0.2-2.6,1.5-5.5,2.2-8.2
		C254.8,128.9,255,127.1,254.9,125.3z"/>
	<path class="st11" d="M227.6,102.2c0-1.8-0.1-3.7-0.3-5.5c-0.2-1.3-0.4-2.8-0.5-4.2c-0.1,1.9,0.2,3.9,0.5,5.7
		C227.4,99.5,227.5,100.9,227.6,102.2z"/>
	<path class="st11" d="M259.8,149.6c0,0,0-0.1,0-0.1c-0.4,1.8-1.9,3.5-2.5,5.3c-0.4,1.1-0.6,2.2-0.4,3.4c0.1-0.6,0.2-1.2,0.4-1.8
		C258,154,260.2,152,259.8,149.6z"/>
	<path class="st11" d="M218.5,196c-0.2-5.9-4.5-10.7-6.6-16.1c-0.3-0.9-0.6-1.8-0.7-2.7c-0.1,1.4,0.1,2.9,0.7,4.2
		c2.1,5.4,6.3,10.1,6.6,15.8C218.5,196.8,218.5,196.4,218.5,196z"/>
	<path class="st11" d="M273.9,117.5c-3.5-5.3-14-14.6-21.2-12.1c-0.8,0.3-1.4,0.7-2,1.3c-0.6,0.6-1,1.3-1.2,2.1
		c-0.2,0.6-0.2,1.2-0.1,1.8c0-0.1,0-0.2,0.1-0.3c0.2-0.8,0.6-1.5,1.2-2.1c0.6-0.6,1.2-1,2-1.3c7.2-2.6,17.8,6.7,21.2,12.1
		c3.9,6,5.5,13.3,5.6,20.5C279.6,131.8,278.1,123.9,273.9,117.5z"/>
	<path class="st11" d="M291,128.7c-0.8,5.5-8.7,6.6-11.5,11.4c0,0.5,0,1.1,0,1.6c2.8-4.9,10.8-5.9,11.5-11.5
		C291.1,129.8,291.1,129.2,291,128.7C291,128.7,291,128.7,291,128.7z"/>
	<path class="st11" d="M295.4,109.3c-1.6,4.6-5.5,8.7-5.1,13.5c0,0.1,0,0.1,0,0.2c0.4-4.3,3.6-8,5.1-12.2c0.7-1.9,1-3.9,0.8-5.9
		C296.2,106.4,295.9,107.9,295.4,109.3z"/>
	<path class="st11" d="M254.4,206.5c-0.4,0.6-0.9,0.9-1.6,1.1c-2.3,0.2-1.9-3.9-3.8-5.3c0,0.6,0.1,1.1,0.1,1.7
		c1.7,1.5,1.4,5.5,3.7,5.2c0.3-0.1,0.6-0.2,0.9-0.4c0.3-0.2,0.5-0.4,0.7-0.7c2.1-2.6,2.3-5.9,2.2-9.3
		C256.5,201.6,256.1,204.3,254.4,206.5z"/>
	<path class="st11" d="M248.5,209.4c-0.9,2.3-3.2,4.2-5.6,3.8c-0.3-1.8-0.5-3.6-0.8-5.5c-1.6,1.5-3.4,2.7-5.5,3.5
		c-0.1,0.6-0.2,1.1-0.3,1.7c2.2-0.8,4.1-2,5.8-3.6c0.3,1.8,0.6,3.6,0.8,5.5c2.4,0.4,4.7-1.5,5.6-3.8c0.5-1.6,0.8-3.3,0.6-4.9
		C249.1,207.2,248.9,208.4,248.5,209.4z"/>
	<path class="st11" d="M256.7,189.5c-0.2,1.5-0.3,2.9-0.2,4.4c0-1,0.1-1.9,0.2-2.9c0.9-6,5-11.4,4.7-17.3
		C261,179.1,257.5,184.1,256.7,189.5z"/>
</g>
<path class="st1" d="M400.9,272.2c0,0-3.3,15.3,11.4,17.2l0.9-1.7C413.1,287.7,401.8,277,400.9,272.2z"/>
<path class="st1" d="M417.8,287.6l-3.4,0.7l-0.3,0.1c0,0-9.1-7.4-9-23.9c1.2,2.4,2.7,4.7,4.3,6.9C413,276.1,417.1,282.5,417.8,287.6
	z"/>
<path class="st1" d="M419,289.1c-0.3,0.2-0.6,0.3-0.9,0.3c-0.3,0-0.6,0-0.9-0.1c-8.7-2-5.8-30.6-5.8-30.6c0.5,0.2,1,3.9,3,8.5
	C417.9,275.6,421.8,287.1,419,289.1z"/>
<path class="st1" d="M438.4,272.2c0,0,0.6,15.3-14.1,17.2l-0.9-1.7C423.4,287.7,437.5,277,438.4,272.2z"/>
<path class="st1" d="M434.2,264.5c0.1,16.5-11.7,23.9-11.7,23.9l-0.3-0.1l-3.4-0.7c0.7-5.1,4.8-11.4,8.4-16.2
	C429.1,268.8,431.5,266.5,434.2,264.5z"/>
<path class="st1" d="M422.1,287.7c-0.5,0.6-1.2,1.1-1.9,1.5c-0.2,0.1-0.5,0.2-0.7,0.2c-2.2,0.5-2.9-1-2.8-3.7
	c0.2-4.7,3.2-12.9,5.8-18.9c1.9-4.4,5-7.7,5.5-7.9C427.9,258.8,427.8,281,422.1,287.7z"/>
<path class="st1" d="M419.6,248.8c0,0-9.8,34.7-1.4,39.9C426.7,293.9,421.8,251.9,419.6,248.8z"/>
<path class="st8" d="M400.9,272.2c0,0-3.3,15.3,11.4,17.2l0.9-1.7C413.1,287.7,401.8,277,400.9,272.2z"/>
<path class="st8" d="M417.8,287.6l-3.4,0.7l-0.3,0.1c0,0-9.1-7.4-9-23.9c1.2,2.4,2.7,4.7,4.3,6.9C413,276.1,417.1,282.5,417.8,287.6
	z"/>
<path class="st8" d="M419,289.1c-0.3,0.2-0.6,0.3-0.9,0.3c-0.3,0-0.6,0-0.9-0.1c-8.7-2-5.8-30.6-5.8-30.6c0.5,0.2,1,3.9,3,8.5
	C417.9,275.6,421.8,287.1,419,289.1z"/>
<path class="st8" d="M438.4,272.2c0,0,0.6,15.3-14.1,17.2l-0.9-1.7C423.4,287.7,437.5,277,438.4,272.2z"/>
<path class="st8" d="M434.2,264.5c0.1,16.5-11.7,23.9-11.7,23.9l-0.3-0.1l-3.4-0.7c0.7-5.1,4.8-11.4,8.4-16.2
	C429.1,268.8,431.5,266.5,434.2,264.5z"/>
<path class="st8" d="M422.1,287.7c-0.5,0.6-1.2,1.1-1.9,1.5c-0.2,0.1-0.5,0.2-0.7,0.2c-2.2,0.5-2.9-1-2.8-3.7
	c0.2-4.7,3.2-12.9,5.8-18.9c1.9-4.4,5-7.7,5.5-7.9C427.9,258.8,427.8,281,422.1,287.7z"/>
<path class="st8" d="M419.6,248.8c0,0-9.8,34.7-1.4,39.9C426.7,293.9,421.8,251.9,419.6,248.8z"/>
<path class="st1" d="M400.9,272.2c0,0-1.9,15.3,12.7,17.2l0.9-1.7C414.5,287.7,401.8,277,400.9,272.2z"/>
<path class="st1" d="M419.2,287.6l-3.4,0.7l-0.3,0.1c0,0-10.5-7.4-10.3-23.9c0,0,2.7,2.9,5.7,6.9
	C414.4,276.1,418.5,282.5,419.2,287.6z"/>
<path class="st8" d="M419.2,287.6l-3.4,0.7c-3.2-2.8-4.5-10.2-5-16.9C414.4,276.1,418.5,282.5,419.2,287.6z"/>
<path class="st1" d="M420.3,289.1c-0.3,0.2-0.6,0.3-0.9,0.3c-0.3,0-0.6,0-0.9-0.1c-8.7-2-7.2-30.6-7.2-30.6c0.5,0.2,2.4,3.9,4.4,8.5
	C419.2,275.6,423.1,287.1,420.3,289.1z"/>
<path class="st1" d="M438.4,272.2c0,0,1.9,15.3-12.7,17.2l-0.9-1.7C424.7,287.7,437.5,277,438.4,272.2z"/>
<path class="st1" d="M434.2,264.5c0.1,16.5-10.3,23.9-10.3,23.9l-0.3-0.1l-3.4-0.7c0.7-5.1,4.8-11.4,8.4-16.2
	C431.5,267.4,434.2,264.5,434.2,264.5z"/>
<path class="st8" d="M428.4,271.4c-0.4,6.2-1.6,13.1-4.3,16.3c-0.2,0.2-0.4,0.4-0.6,0.6l-3.4-0.7
	C420.7,282.5,424.9,276.1,428.4,271.4z"/>
<path class="st1" d="M423.4,287.7c-0.5,0.6-1.2,1.1-1.9,1.5c-0.2,0.1-0.5,0.2-0.7,0.2c-2.2,0.5-2.9-1-2.8-3.7
	c0.2-4.7,3.2-12.9,5.8-18.9c1.9-4.4,3.7-7.7,4.1-7.9C427.9,258.8,429.1,281,423.4,287.7z"/>
<path class="st8" d="M420.3,289.1c-0.5,0-1-0.2-1.4-0.4c-4.1-2.6-4.2-12.2-3.2-21.3C419.2,275.6,423.1,287.1,420.3,289.1z"/>
<path class="st8" d="M423.4,287.7c-0.5,1-1.1,1.6-1.9,1.5c-0.4-0.1-0.8-0.2-1.2-0.4c-1.1-0.7-1.9-1.8-2.3-3
	c0.2-4.7,3.2-12.9,5.8-18.9C424.7,275.2,425,284.2,423.4,287.7z"/>
<path class="st1" d="M419.6,248.8c0,0-8.4,34.7,0,39.9C428,293.9,421.8,251.9,419.6,248.8z"/>
<path class="st12" d="M435.7,287h-35v5.8h5.3l0.1,0.7l2.1,11.2h20.3l2.1-11.2l0.1-0.7h4.8V287z"/>
<path class="st8" d="M435.7,287h-35v5.8h5.3l0.1,0.7l2.1,11.2h20.3l2.1-11.2l0.1-0.7h4.8V287z"/>
<path class="st12" d="M432.8,290.4l-0.6,3.1l-2.1,11.2h-20.3l-2.1-11.2l-0.6-3.1H432.8z"/>
<path class="st8" d="M432.8,290.4l-0.6,3.1h-24.6l-0.6-3.1H432.8z"/>
<path class="st12" d="M437.1,287h-35v5.8h35V287z"/>
<path class="st1" d="M138.5,249.9c-0.5,0.7-0.9,1.4-1.2,2.2c-0.1,0.2-0.1,0.4-0.2,0.6c-0.1-0.1-0.3-0.1-0.4-0.1
	c-0.6-0.2-1.2-0.2-1.9-0.2c0-0.2,0-0.5,0-0.8c0.1-2.7-0.2-6.6-2.9-4.9c-2.5,1.6-0.7,4.2,0.9,5.8c0.1,0.1,0.3,0.3,0.4,0.4
	c-1.5,1.1-1.8,3.5-2,6.1c-0.2,2.6-2.4,5.3-3.8,6.9c-0.1,0.2-0.3,0.3-0.4,0.4c-0.6-0.5-1.3-0.8-2-1c-0.7-0.2-1.5-0.2-2.2-0.1
	l-0.2-0.7c-1.2-4.2-3.6-11.5-6.7-13.1l0.4-0.5c1.3-1.7,2.8-4.3,0.6-4.9c-2.2-0.7-2.4,2.2-2.3,4.4c0,0.3,0,0.5,0.1,0.8
	c-0.4,0-0.9,0.1-1.3,0.3c-0.4,0.2-0.7,0.5-1,0.8c-0.1-0.1-0.2-0.3-0.3-0.4c-1.8-2.1-5-5.4-6-2.9c-0.9,2.3,1.9,5.3,3.9,7.1l0.1,0.1
	c-1.3,5.5,4.5,9.9,7.7,11.9c0.1,0.1,0.3,0.2,0.4,0.3c-4.4,5.1-7.1,14.8-7.1,14.8l12.2,2.2c0,0,8.1-7,7.1-13.6h0.1
	c8.1-1.6,9.9-10.3,8.7-15.4l0.1-0.1c1.5-0.6,2.8-1.6,3.8-2.8C145.6,250.4,140.8,246.8,138.5,249.9z"/>
<path class="st8" d="M138.5,249.9c-0.5,0.7-0.9,1.4-1.2,2.2c-0.1,0.2-0.1,0.4-0.2,0.6c-0.1-0.1-0.3-0.1-0.4-0.1
	c-0.6-0.2-1.2-0.2-1.9-0.2c0-0.2,0-0.5,0-0.8c0.1-2.7-0.2-6.6-2.9-4.9c-2.5,1.6-0.7,4.2,0.9,5.8c0.1,0.1,0.3,0.3,0.4,0.4
	c-1.5,1.1-1.8,3.5-2,6.1c-0.2,2.6-2.4,5.3-3.8,6.9c-0.1,0.2-0.3,0.3-0.4,0.4c-0.6-0.5-1.3-0.8-2-1c-0.7-0.2-1.5-0.2-2.2-0.1
	l-0.2-0.7c-1.2-4.2-3.6-11.5-6.7-13.1l0.4-0.5c1.3-1.7,2.8-4.3,0.6-4.9c-2.2-0.7-2.4,2.2-2.3,4.4c0,0.3,0,0.5,0.1,0.8
	c-0.4,0-0.9,0.1-1.3,0.3c-0.4,0.2-0.7,0.5-1,0.8c-0.1-0.1-0.2-0.3-0.3-0.4c-1.8-2.1-5-5.4-6-2.9c-0.9,2.3,1.9,5.3,3.9,7.1l0.1,0.1
	c-1.3,5.5,4.5,9.9,7.7,11.9c0.1,0.1,0.3,0.2,0.4,0.3c-4.4,5.1-7.1,14.8-7.1,14.8l12.2,2.2c0,0,8.1-7,7.1-13.6h0.1
	c8.1-1.6,9.9-10.3,8.7-15.4l0.1-0.1c1.5-0.6,2.8-1.6,3.8-2.8C145.6,250.4,140.8,246.8,138.5,249.9z"/>
<path class="st1" d="M114.1,253.4l-1.4,4.2c0,0-0.8-0.6-1.8-1.5c-2-1.8-4.8-4.8-3.9-7.1c1-2.5,4.2,0.8,6,2.9
	C113.7,252.8,114.1,253.4,114.1,253.4z"/>
<path class="st1" d="M117.2,251.1c-0.4,0.6-0.9,1.1-1.4,1.6c-0.1-0.7-0.2-1.5-0.3-2.2c-0.1-2.1,0.1-5,2.3-4.4
	C119.9,246.7,118.5,249.3,117.2,251.1z"/>
<path class="st1" d="M135.6,251.7c0,1.4-0.2,2.5-0.2,2.5c-0.6-0.5-1.2-1-1.8-1.6c-1.6-1.7-3.4-4.3-0.9-5.8
	C135.4,245.1,135.7,249,135.6,251.7z"/>
<path class="st1" d="M144,253.5c-1,1.3-2.3,2.2-3.8,2.8c-0.4,0.2-0.8,0.3-1.3,0.5l-1.7-2.4c0.2-0.8,0.4-1.6,0.7-2.3
	c0.3-0.8,0.7-1.5,1.2-2.2C141.6,246.8,146.3,250.4,144,253.5z"/>
<path class="st8" d="M113,252c0.7,0.8,1.2,1.5,1.2,1.5l-1.4,4.2c0,0-0.8-0.6-1.8-1.5c0.2-1.3,0.8-2.6,1.6-3.7
	C112.7,252.3,112.8,252.1,113,252z"/>
<path class="st8" d="M117.2,251.1c-0.4,0.6-0.9,1.1-1.4,1.6c-0.1-0.7-0.2-1.5-0.3-2.2C116.1,250.5,116.7,250.7,117.2,251.1z"/>
<path class="st1" d="M124.2,267.7l-3.6,1.6c-0.7-0.3-1.3-0.7-1.9-1.1c-3.7-2.3-11.3-8.1-6.2-14.9c5-6.8,9.2,5.4,10.9,11.4
	C123.9,266.4,124.2,267.7,124.2,267.7z"/>
<path class="st8" d="M133.6,252.6c0.5-0.5,1.2-0.8,2-0.9c0,1.4-0.2,2.5-0.2,2.5C134.8,253.7,134.2,253.2,133.6,252.6z"/>
<path class="st8" d="M140.3,256.4c-0.4,0.2-0.8,0.3-1.3,0.5l-1.7-2.4c0.2-0.8,0.4-1.6,0.7-2.3C139.1,252.8,139.9,254.4,140.3,256.4z
	"/>
<path class="st1" d="M131.5,271.8c-0.2,0-0.4,0.1-0.6,0.1c-11.9,1.8-3.9-4.6-3.9-4.6s0.5-0.5,1.3-1.3c1.5-1.6,3.6-4.4,3.8-6.9
	c0.4-3.9,0.8-7.5,5.4-6.4C141.9,253.7,142.7,269.6,131.5,271.8z"/>
<path class="st12" d="M131.2,301.5h-22.8v6h22.8V301.5z"/>
<path class="st12" d="M134.6,282h-29.8v20.9h29.8V282z"/>
<path class="st8" d="M131.2,301.5h-22.8v6h22.8V301.5z"/>
<path class="st8" d="M134.6,282h-29.8v20.9h29.8V282z"/>
<path class="st12" d="M132.7,301.5H110v6h22.8V301.5z"/>
<path class="st8" d="M123.4,264.7c0.5,1.8,0.8,3,0.8,3l-3.6,1.6c-0.6-0.3-1.3-0.7-1.9-1.1C120.1,266.4,121.7,265.1,123.4,264.7z"/>
<path class="st8" d="M131.5,271.8c-0.2,0-0.4,0.1-0.6,0.1c-11.9,1.8-3.9-4.6-3.9-4.6s0.5-0.5,1.3-1.3
	C130.4,267.8,131.3,269.8,131.5,271.8z"/>
<path class="st1" d="M112.1,283.2c0,0,6.7-23.9,16-16.5c9.4,7.4-3.8,18.7-3.8,18.7L112.1,283.2z"/>
<path class="st8" d="M115.5,257.7c0.4,0,0.7-0.3,0.7-0.7c0-0.4-0.3-0.7-0.7-0.7c-0.4,0-0.7,0.3-0.7,0.7
	C114.7,257.4,115,257.7,115.5,257.7z"/>
<path class="st8" d="M115.4,261.2c0.4,0,0.7-0.3,0.7-0.7c0-0.4-0.3-0.7-0.7-0.7c-0.4,0-0.7,0.3-0.7,0.7
	C114.6,260.9,115,261.2,115.4,261.2z"/>
<path class="st8" d="M137.1,258.4c0.4,0,0.7-0.3,0.7-0.7c0-0.4-0.3-0.7-0.7-0.7c-0.4,0-0.7,0.3-0.7,0.7
	C136.4,258.1,136.7,258.4,137.1,258.4z"/>
<path class="st8" d="M119.6,276.3c0.4,0,0.7-0.3,0.7-0.7c0-0.4-0.3-0.7-0.7-0.7c-0.4,0-0.7,0.3-0.7,0.7
	C118.9,276,119.2,276.3,119.6,276.3z"/>
<path class="st8" d="M135.5,264.2c0.4,0,0.7-0.3,0.7-0.7s-0.3-0.7-0.7-0.7c-0.4,0-0.7,0.3-0.7,0.7S135.1,264.2,135.5,264.2z"/>
<path class="st8" d="M127.8,272c0.4,0,0.7-0.3,0.7-0.7c0-0.4-0.3-0.7-0.7-0.7c-0.4,0-0.7,0.3-0.7,0.7
	C127.1,271.6,127.4,272,127.8,272z"/>
<path class="st8" d="M118,259.2c0.4,0,0.7-0.3,0.7-0.7c0-0.4-0.3-0.7-0.7-0.7c-0.4,0-0.7,0.3-0.7,0.7
	C117.3,258.9,117.6,259.2,118,259.2z"/>
<path class="st8" d="M135,260.7c0.4,0,0.7-0.3,0.7-0.7c0-0.4-0.3-0.7-0.7-0.7c-0.4,0-0.7,0.3-0.7,0.7
	C134.3,260.3,134.6,260.7,135,260.7z"/>
<path class="st8" d="M132.5,266.5c0.4,0,0.7-0.3,0.7-0.7s-0.3-0.7-0.7-0.7c-0.4,0-0.7,0.3-0.7,0.7S132.1,266.5,132.5,266.5z"/>
<path class="st8" d="M124.6,275.8c0.4,0,0.7-0.3,0.7-0.7c0-0.4-0.3-0.7-0.7-0.7c-0.4,0-0.7,0.3-0.7,0.7
	C123.9,275.5,124.2,275.8,124.6,275.8z"/>
<path class="st8" d="M123,272.1c0.4,0,0.7-0.3,0.7-0.7c0-0.4-0.3-0.7-0.7-0.7c-0.4,0-0.7,0.3-0.7,0.7
	C122.3,271.8,122.6,272.1,123,272.1z"/>
<path class="st8" d="M119.1,263.8c0.4,0,0.7-0.3,0.7-0.7c0-0.4-0.3-0.7-0.7-0.7c-0.4,0-0.7,0.3-0.7,0.7
	C118.4,263.5,118.7,263.8,119.1,263.8z"/>
<path class="st8" d="M132.7,301.5H110v2.2h22.8V301.5z"/>
<path class="st12" d="M136.1,282h-29.8v20.9h29.8V282z"/>
<path class="st8" d="M125.6,279.2c0.4,0,0.7-0.3,0.7-0.7c0-0.4-0.3-0.7-0.7-0.7s-0.7,0.3-0.7,0.7
	C124.9,278.8,125.2,279.2,125.6,279.2z"/>
<path class="st8" d="M121.1,280.1c0.4,0,0.7-0.3,0.7-0.7c0-0.4-0.3-0.7-0.7-0.7c-0.4,0-0.7,0.3-0.7,0.7
	C120.4,279.8,120.7,280.1,121.1,280.1z"/>
</svg>
