<svg xmlns="http://www.w3.org/2000/svg" viewBox="0 0 97.42 97.41"><defs><style>.cls-1{isolation:isolate;}.cls-2{fill:#46bad5;}.cls-3{fill:#f6e679;}.cls-4,.cls-7{mix-blend-mode:multiply;}.cls-5{fill:#dec694;}.cls-6{fill:#fff;}.cls-7{fill:#999;opacity:0.57;}</style></defs><title>Artboard 1</title><g class="cls-1"><g id="Layer_1" data-name="Layer 1"><circle class="cls-2" cx="48.24" cy="47.24" r="45.24" transform="translate(-7.24 85.71) rotate(-79.14)"/><path class="cls-3" d="M80.22,46.74A31.91,31.91,0,0,1,25.74,69.3,32.37,32.37,0,0,1,20,61.43a31.94,31.94,0,0,0,43-43,32.61,32.61,0,0,1,7.88,5.78A31.83,31.83,0,0,1,80.22,46.74Z"/><g class="cls-4"><path class="cls-5" d="M76,51.57c-.16-.14-.32-.28-.47-.43L75.43,51s-.16-.24-.06-.07a1.17,1.17,0,0,1-.05-.11c0-.12,0,0,0,0-.06.39-.82.55-1.16.57h.12c-.35,0-.11,0,0,0l.2,0,.06,0a5.43,5.43,0,0,1,.88.41,1.18,1.18,0,0,1,.19.11.41.41,0,0,1,.11.07c-.15-.1,0,0,0,0s.23.19.34.29a1.93,1.93,0,0,1,.27.3c.08.12,0-.09,0,.07a1.21,1.21,0,0,1,0,.18c0,.05,0,.21,0,0a.47.47,0,0,1,0,.17c0,.11.08-.14,0,0l-.06.08c-.08.12.14-.14,0,0l-.09.08c-.07.06,0,0,.08-.05l-.12.07c-.17.1.23-.11.05,0l-.16.07c-.07,0-.28.1,0,0l-.2.06-.47.12c-.29.06-1,.36-.89.78s.87.29,1.16.23a5.73,5.73,0,0,0,1.88-.72,1.61,1.61,0,0,0,.82-1c.1-.75-.62-1.28-1.17-1.64a4.6,4.6,0,0,0-2-.77c-.78-.09-2.61.29-1.89,1.38a3.1,3.1,0,0,0,.69.71,1.4,1.4,0,0,0,1.36,0c.2-.09.91-.51.55-.82Z"/></g><g class="cls-4"><path class="cls-5" d="M72,39.33a2.47,2.47,0,0,0-1.07,2.83c.19.54.66.65,1.18.64a3.17,3.17,0,0,0,2.33-1.17c.31-.35-.26-.4-.5-.39a2.15,2.15,0,0,0-1.37.51,2.34,2.34,0,0,1-.39.38,1.51,1.51,0,0,1,1-.21c-.06,0,0,0-.09-.06a1.09,1.09,0,0,1-.25-.72,1.89,1.89,0,0,1,.71-1.7c.36-.21.24-.48-.13-.5a2.51,2.51,0,0,0-1.46.39Z"/></g><g class="cls-4"><path class="cls-5" d="M71.05,32.16c.31-.14-.26-.1,0,0a1.23,1.23,0,0,1,.49.47,2.89,2.89,0,0,1,.38,1.52l.89-.77a2.57,2.57,0,0,1-.88.11,1.77,1.77,0,0,0-1.36.55c-.28.4.24.58.55.58a6.47,6.47,0,0,0,2-.25c.36-.11.9-.31.89-.77a2.86,2.86,0,0,0-.88-2.16,2.73,2.73,0,0,0-2.85-.09c-.22.1-.89.46-.56.8s1,.16,1.36,0Z"/></g><g class="cls-4"><path class="cls-5" d="M63.2,60.5a3.73,3.73,0,0,0-2.79,2.63c-.42,1.51,1.11,2.14,2.34,2,.45-.05,1.07-.3,1.14-.82s-.55-.7-1-.66a1.35,1.35,0,0,1-.4,0c.1,0,0,0,0-.08a.92.92,0,0,1,0-.6,1.78,1.78,0,0,1,.41-.7,1.05,1.05,0,0,1,.67-.39c.4-.08,1-.48.84-1s-.81-.51-1.21-.42Z"/></g><g class="cls-4"><path class="cls-5" d="M46.46,72.84c.18-.62.64-.66,1.28-.61a1.63,1.63,0,0,1,.83.26s0,.17,0,0c0,.08,0,0-.08.14-1,.92.58,1.64,1.37,1,.55-.47,1-1.1.66-1.83a2.44,2.44,0,0,0-1.75-1c-1.47-.31-3.81.17-4.3,1.82-.34,1.15,1.71,1.14,2,.25Z"/></g><g class="cls-4"><path class="cls-5" d="M57.94,72.27a1.23,1.23,0,0,1-.2-1,.86.86,0,0,1,.56-.57c-.19.09.12,0,.14,0-.2,0,.11,0,.14,0-.18,0,.13,0,.14,0s.15,0,.15,0c.27.1.42.53.47.85l.84-.95a4.78,4.78,0,0,1-1.31.12c-.44,0-1.07.34-1.14.82s.56.65.94.64A6.63,6.63,0,0,0,60.55,72c.43-.12.93-.45.84-1-.59-3.6-7.44-1.34-5.33,2.14.46.77,2.43,0,1.88-.89Z"/></g><g class="cls-4"><path class="cls-5" d="M36.23,69.27a2.2,2.2,0,0,0-.4-2.1,2.7,2.7,0,0,0-2.61-.5c-.41.1-1,.51-.83,1s.81.55,1.22.45h0l.19,0c-.26,0,.26.06,0,0l.15.06c-.09,0-.09,0,0,0s.08.06,0,0l.09.11a.91.91,0,0,1,.14.48,2.62,2.62,0,0,1-.09.69c-.12.52.59.72,1,.7a1.19,1.19,0,0,0,1.12-.85Z"/></g><g class="cls-4"><path class="cls-5" d="M51.64,61.85a5.23,5.23,0,0,0-3.18,1c-.81.66-.21,1.44.48,1.88.33.21,1,0,1.32-.13.08,0,.92-.37.61-.56S50,63.46,50.12,63a.61.61,0,0,1,.28-.35c-.09.06-.36.05-.1,0a2.92,2.92,0,0,0,1.45-.39c.32-.19.29-.43-.11-.42Z"/></g><g class="cls-4"><path class="cls-5" d="M66.31,48.15l.17-.13a1.27,1.27,0,0,1-.92.18.24.24,0,0,1,.13.11,1.73,1.73,0,0,1,.21.92c0,.46,2.07.11,2.06-.55a1.35,1.35,0,0,0-.68-1.32,2.1,2.1,0,0,0-1.31,0,3.69,3.69,0,0,0-1.26.61c-.32.24-.27.51.14.55a2.27,2.27,0,0,0,1.46-.39Z"/></g><polygon class="cls-6" points="34.35 27.05 36.73 31.41 41.1 33.8 36.73 36.19 34.35 40.55 31.96 36.19 27.59 33.8 31.96 31.41 34.35 27.05"/><polygon class="cls-6" points="44.45 36.57 45.86 39.14 48.44 40.55 45.86 41.96 44.45 44.54 43.04 41.96 40.47 40.55 43.04 39.14 44.45 36.57"/><polygon class="cls-6" points="50.67 18.02 51.87 20.22 54.06 21.42 51.87 22.62 50.67 24.81 49.47 22.62 47.27 21.42 49.47 20.22 50.67 18.02"/><polygon class="cls-6" points="27.59 48.62 28.43 50.15 29.97 50.99 28.43 51.83 27.59 53.37 26.75 51.83 25.22 50.99 26.75 50.15 27.59 48.62"/><path class="cls-7" d="M93.48,47.24A45.24,45.24,0,0,1,49.2,92.46L28.44,71.7A31.91,31.91,0,0,0,72.11,25.48L93.47,46.84C93.48,47,93.48,47.11,93.48,47.24Z"/></g></g></svg>