<?xml version="1.0" encoding="utf-8"?>
<!-- Generator: Adobe Illustrator 23.1.1, SVG Export Plug-In . SVG Version: 6.00 Build 0)  -->
<svg version="1.1" id="Layer_1" xmlns="http://www.w3.org/2000/svg" xmlns:xlink="http://www.w3.org/1999/xlink" x="0px" y="0px"
	 viewBox="0 0 252 112" style="enable-background:new 0 0 252 112;" xml:space="preserve">
<style type="text/css">
	.st0{fill:none;stroke:#FFFFFF;stroke-width:2;stroke-linecap:square;}
	.st1{display:none;fill:#F5A623;}
	.st2{fill:#F5A623;}
	.st3{fill:#4A90E2;}
	.st4{fill:#1853BC;}
	.st5{fill:#D0021B;}
</style>
<path class="st0" d="M1.7,88.9h248.7"/>
<path class="st0" d="M1.7,88.9v-84"/>
<rect x="8.9" y="66.7" class="st1" width="5.2" height="44.5"/>
<rect x="18.7" y="57.6" class="st2" width="5.2" height="44.5"/>
<rect x="31.1" y="49.4" class="st2" width="5.2" height="44.5"/>
<rect x="54.7" y="32.1" class="st2" width="5.2" height="44.5"/>
<rect x="68.4" y="51.9" class="st3" width="5.2" height="44.5"/>
<rect x="156.8" y="57.6" class="st2" width="5.2" height="44.5"/>
<rect x="169.2" y="46.9" class="st2" width="5.2" height="44.5"/>
<rect x="191.4" y="35.4" class="st2" width="5.2" height="44.5"/>
<rect x="203.9" y="61.8" class="st2" width="5.2" height="44.5"/>
<rect x="179" y="44.5" class="st2" width="5.2" height="44.5"/>
<rect x="86.1" y="39.5" class="st3" width="5.2" height="44.5"/>
<rect x="95.9" y="13.2" class="st3" width="5.2" height="44.5"/>
<rect x="108.3" class="st3" width="5.2" height="44.5"/>
<rect x="213.7" y="39.5" class="st3" width="5.2" height="44.5"/>
<rect x="223.5" y="24.7" class="st3" width="5.2" height="44.5"/>
<rect x="233.3" y="39.5" class="st3" width="5.2" height="44.5"/>
<rect x="243.1" y="61.8" class="st4" width="5.2" height="44.5"/>
<rect x="120.8" y="29.6" class="st5" width="5.2" height="44.5"/>
<rect x="130.6" y="49.4" class="st5" width="5.2" height="44.5"/>
<rect x="144.3" y="66.7" class="st5" width="5.2" height="44.5"/>
<rect x="40.9" y="35.4" class="st2" width="5.2" height="44.5"/>
</svg>
