<svg xmlns="http://www.w3.org/2000/svg" viewBox="0 0 97.41 97.41"><defs><style>.cls-1{isolation:isolate;}.cls-2{fill:#5f659d;}.cls-3{fill:#e2941f;}.cls-4{fill:#f9a61f;}.cls-5{fill:#46bad5;}.cls-6{fill:#7dc6c5;}.cls-7{fill:#51b7bf;}.cls-8{fill:#3f979a;}.cls-9{opacity:0.44;}.cls-10,.cls-9{mix-blend-mode:multiply;}.cls-10{fill:#999;opacity:0.57;}</style></defs><title>Artboard 1</title><g class="cls-1"><g id="Layer_1" data-name="Layer 1"><path class="cls-2" d="M92.82,48.41A44.41,44.41,0,1,1,48.41,4,44.41,44.41,0,0,1,92.82,48.41Z"/><path class="cls-3" d="M35.68,62.15a1.31,1.31,0,0,1-1,1.43,2.2,2.2,0,0,1-1.82-.39,3.93,3.93,0,0,1-1.24-1.83,3.48,3.48,0,0,1,.16-2.89.91.91,0,0,1,.8-.37,2,2,0,0,1,1.26.47A6.08,6.08,0,0,1,35.68,62.15Z"/><path class="cls-4" d="M34.73,63.58a1.31,1.31,0,0,0,1-1.43,6.08,6.08,0,0,0-1.79-3.58,2,2,0,0,0-1.26-.47c2.31,0,9.31-1.1,10,2C43.24,62.88,37.23,63.6,34.73,63.58Z"/><path class="cls-5" d="M32.6,60.52a21.39,21.39,0,0,0-3.24,1.28c-.27.17-.46.4-.3.73.65,1.34,1.36,2-1,2.41a13.26,13.26,0,0,1-6.49-.67c-4.09-1.44-3.75-4.44-.47-6,4.29-2,9.48-2.51,14.13-3a28.79,28.79,0,0,1,11.32.49c2.88.78,6.09-.35,9-.56a18.88,18.88,0,0,1,7.26.48c3.23,1.05-.32,3-2.07,3.17-1,.1-2.05.21-3,.21-.79,0-1,1-.11,1,2.21,0,7,.16,8-2.39,1.18-3-4.25-3.53-5.83-3.62a32.92,32.92,0,0,0-4.44.1c-1.66.12-3.29.42-4.93.65-2.24.32-4.4-.5-6.58-.89-4-.72-8.69.24-12.74.85-2.26.34-17,2.46-13.66,7.63,2.34,3.56,7.78,4.45,11.71,3.4.6-.16,2.35-.87,2.09-1.82a6.05,6.05,0,0,0-.85-1.93c-.3.61-.11.65.56.12.38-.19,1.77-.59,2.31-.81.85-.35.1-1.14-.61-.84Z"/><path class="cls-4" d="M57.88,61.87a11.78,11.78,0,0,1-5.2.86c-1-.06-3.53-.46-3.88-1.73-.69-2.49,4.76-3.86,7-4.12A5.79,5.79,0,0,1,57.88,61.87Z"/><path class="cls-6" d="M72.17,34c-4-3.23-12.33-4.62-20.39-3.87-6.77.06-15.64,2.3-17.52,8.61a17.67,17.67,0,0,0-.37,7.89,14.78,14.78,0,0,0,2,5.3,11.18,11.18,0,0,0,7.5,5.19c3.93.69,6.59-2,9.71-3.82s5.89-2.19,9.36-.92c5.2,2.08,12.14,5.2,14.1-2.55C77.84,44.58,76.45,37.54,72.17,34Zm2.16,13C74.08,53.45,67,50.77,63,49.38A13.22,13.22,0,0,0,55.87,49c-2.42.61-4.24,2.34-6.32,3.55s-5.81,2.34-8.07.7a12.28,12.28,0,0,1-4.07-6.07c-1.87-4.66-.66-9.07,3.68-11.62a11.51,11.51,0,0,1,5.29-2.08c2.23-.35,4-.78,6.16-.91,6.45-.38,10-.57,15,2.21A13.55,13.55,0,0,1,74.33,47Z"/><path class="cls-7" d="M74.33,47C74.08,53.45,67,50.77,63,49.38A13.22,13.22,0,0,0,55.87,49c-2.42.61-4.24,2.34-6.32,3.55s-5.81,2.34-8.07.7a12.28,12.28,0,0,1-4.07-6.07c-1.87-4.66-.66-9.07,3.68-11.62a11.51,11.51,0,0,1,5.29-2.08c2.23-.35,4-.78,6.16-.91,6.45-.38,10-.57,15,2.21A13.55,13.55,0,0,1,74.33,47Z"/><path class="cls-7" d="M35.89,51.88c-2.22,1.53-4.3,3.12-7.06,3.66-2.95.6-7.2,1.39-9.71-.53V50.79c.08.55,1.38.76,2.16.76A15,15,0,0,0,28.56,50,22.16,22.16,0,0,0,31.3,48.2a17.93,17.93,0,0,1,2.59-1.62A14.78,14.78,0,0,0,35.89,51.88Z"/><path class="cls-8" d="M31.3,48.2A22.16,22.16,0,0,1,28.56,50a15,15,0,0,1-7.28,1.56c-.78,0-2.08-.21-2.16-.76v0c0-.22.16-.51.69-.86.78-.52,3-.52,3.9-.69C26.05,48.69,29,49.4,31.3,48.2Z"/><g class="cls-9"><path class="cls-8" d="M42.89,44.64c.84-3,6.26-2.48,8.17-.87.55.46,2.92-.58,2.52-.91-2.86-2.42-12.12-2-13.33,2.25-.15.55,2.45.2,2.64-.47Z"/></g><g class="cls-9"><path class="cls-8" d="M61.81,42.94c1.94-1.49,5,.49,6.43,1.86.7.66,3.22-.36,2.49-1.06-3-2.86-7.59-3.93-11.08-1.26-.47.35-.26.85.26,1a2.42,2.42,0,0,0,1.9-.51Z"/></g><path class="cls-10" d="M92.45,54.22a44.42,44.42,0,0,1-44,38.6h-.6L19.43,64.43A12.37,12.37,0,0,0,29.1,65.8c.6-.16,2.35-.87,2.1-1.82a7.6,7.6,0,0,0-.62-1.58,2.22,2.22,0,0,0,.32-.23c.18-.09.55-.21,1-.35a3.66,3.66,0,0,0,1,1.37,2.24,2.24,0,0,0,1.82.39c2.5,0,8.52-.7,7.89-3.51-.67-3.07-7.68-2-10-2a.93.93,0,0,0-.81.37,3.3,3.3,0,0,0-.29,2.43,10.69,10.69,0,0,0-2.18.9c-.27.18-.46.4-.3.72.66,1.35,1.36,2-1,2.43a13.45,13.45,0,0,1-6.48-.68c-4.1-1.44-3.76-4.44-.47-6,4.28-2,9.47-2.51,14.12-3,1.16-.13,2.3-.24,3.41-.29a11.12,11.12,0,0,0,4.74,2.12A7.85,7.85,0,0,0,48.75,56c2.26,0,4.62-.68,6.8-.84a19.09,19.09,0,0,1,7.26.49c3.24,1.05-.32,3-2.07,3.17-1,.1-2,.21-3,.21a.66.66,0,0,0-.25,0,4.74,4.74,0,0,0-1.62-2.19c-2.27.25-7.71,1.62-7,4.11.35,1.27,2.84,1.67,3.88,1.73a11.69,11.69,0,0,0,5.21-.86,5.87,5.87,0,0,0-.13-1.8c2.27,0,6.83.09,7.81-2.4,1.19-3-4.26-3.52-5.82-3.61a32.88,32.88,0,0,0-4.44.1c-1.53.11-3,.37-4.53.58.76-.5,1.53-1,2.32-1.49,3.24-1.84,5.9-2.19,9.36-.92,5.21,2.08,12.14,5.2,14.1-2.55,1.13-4.62.16-10.7-3.07-14.51Z"/></g></g></svg>