<?xml version="1.0" encoding="utf-8"?>
<!-- Generator: Adobe Illustrator 23.1.1, SVG Export Plug-In . SVG Version: 6.00 Build 0)  -->
<svg version="1.1" id="Layer_1" xmlns="http://www.w3.org/2000/svg" xmlns:xlink="http://www.w3.org/1999/xlink" x="0px" y="0px"
	 viewBox="0 0 32 32" style="enable-background:new 0 0 32 32;" xml:space="preserve">
<style type="text/css">
	.st0{fill:#441171;}
	.st1{fill:#FFFFFF;fill-opacity:0.5;}
</style>
<g>
	<ellipse class="st0" cx="16" cy="16" rx="16" ry="16"/>
	<path class="st1" d="M20.9,21C20.9,21,20.9,21,20.9,21C20.9,21,20.9,21,20.9,21C20.9,21,20.9,21,20.9,21z"/>
	<path class="st1" d="M19.9,6.6c-0.3,0-0.6,0.1-1,0.2c-0.2,0-0.4,0-0.6,0c0.5,0.4,0.8,0.7,1.1,0.8c0.2,0.1,0.6-0.1,0.8-0.1
		c0.8,0.2,0.5-0.4,0.6-0.9C20.5,6.7,20.2,6.6,19.9,6.6z"/>
	<path class="st1" d="M19.7,3.1c-1,0.1-0.7-1.1-1.2-1.5C18.4,1.8,18.3,2,18.3,2c-0.6-0.2-1.1-0.4-1.5-0.6c-0.7,0.6-1.3,1-1.9,1.5
		c0.3,0.4,0.6,0.9,1,1.3c0.2,0.2,0.7,0.3,1,0.3c0.3,0.1,0.5,0,0.8,0.1C18.9,4.9,19.8,4.1,19.7,3.1z"/>
	<path class="st1" d="M29.6,10.9c-0.1-0.2-0.1-0.3-0.2-0.5c-0.6-1.5-1.4-2.8-2.3-4C24.3,2.8,20,0.6,15.2,0.6c-0.4,0-0.8,0-1.3,0.1
		c-0.9,0.1-1.7,0.2-2.6,0.4C8.1,1.9,5.2,3.9,3.2,6.5C2.9,6.9,2.6,7.3,2.3,7.7c-1.2,1.9-2,4.1-2.3,6.5C0,14.8,0,15.3,0,15.8
		c0,8.4,6.8,15.2,15.2,15.2c1.2,0,2.4-0.1,3.6-0.4c6-1.5,10.6-6.4,11.5-12.5c0.1-0.7,0.2-1.5,0.2-2.3C30.4,14.1,30.1,12.4,29.6,10.9
		z M1.6,19.7c-0.7-1.1-1-1.8-0.9-2.7c0.1,0,0.2-0.1,0.2-0.1c0.4,0.7,0.7,1.3,1.1,2C1.9,19,1.2,18.4,1.6,19.7z M5.7,10.2
		c0.1,0.1,0,0.4,0,0.6c-0.4-0.1-0.5,0.6-1,0.3c-0.1-0.1-0.4,0.2-0.6,0.4c-0.7,0.7-1.7,0.9-2.6,1.1c-0.1-0.1-0.1-0.2-0.2-0.2
		C2,11.6,2.7,10.8,3.5,10C3.3,9.8,3,9.5,2.9,9.2c0-0.2,0.3-0.5,0.5-0.7C3.5,8.3,3.6,8,3.7,7.8C3.8,7.5,3.9,7.2,4.2,7
		c0,0.3-0.1,0.5-0.1,0.9c0.3-0.1,0.5-0.2,0.8-0.3c0,0.2,0.1,0.3,0.1,0.5C5.2,8,5.5,8,6.1,7.9C5.8,8.4,5.6,8.6,5.5,8.9
		C5.1,9.4,5.3,9.8,5.7,10.2z M7.5,13.1c0.3-0.6,0.1-1-0.5-1.3c-0.1,0,0-0.2-0.1-0.5C7.7,11.7,8.3,12,9,12.4
		c-0.1,0.1-0.2,0.2-0.3,0.3c0.2,0.4,0.4,0.8,0.6,1.4c-0.6-0.1-1.1-0.2-1.5-0.4C7.6,13.6,7.4,13.2,7.5,13.1z M9.9,19.4
		c-0.2-0.1-0.4-0.1-0.6-0.2c-0.2-0.1-0.4-0.2-0.7-0.4C9,18.5,9.4,18.3,9.9,18c0.1,0.3,0.2,0.5,0.2,0.7C10.1,19,10,19.2,9.9,19.4z
		 M30,17.3c-0.1,0.5-0.2,1-0.5,1.5c-0.1,0.1-0.1,0.3-0.1,0.4c0,0.6-0.2,1-0.9,1c-0.2,0-0.6,0.1-0.7,0.3c-0.4,0.7-0.6,0.4-0.8,0.1
		c-0.6,0-1.2-0.1-1.8-0.1c0.1,0.2,0.2,0.4,0.3,0.6c-0.1,0.1-0.1,0.1-0.2,0.2c-0.4-0.2-0.8-0.4-1-0.5c-0.5,0.4-0.9,0.8-1.4,0.9
		c-0.3,0.1-0.7-0.4-1.1-0.6c0,0.2,0.1,0.5,0.2,1c-0.5-0.4-0.8-0.6-1.2-1c-0.1,0-0.2,0.1-0.3,0.1c-0.1,0-0.5,0-0.9-0.1
		c0.3-0.4,0.6-0.8,0.9-1.3c-0.1,0-0.2-0.1-0.3-0.1c0.1,0,0.2,0,0.2,0c-0.1-0.3-0.1-0.6-0.2-1c-0.1-0.2-0.2-0.4-0.2-0.6
		c-0.1-0.6-0.6-0.9-1.3-0.8c-0.5,0.1-1.1,0.2-1.6-0.4c-0.2-0.3-0.6-0.3-1-0.5c0.1,0.8-0.2,0.9-0.7,0.7C15.3,17.1,15,17,14.9,17
		c-0.5,0.2-1,0.5-1.6,0.7c0-0.6,0.1-1.1,0.1-1.5c-1.2,0.1-0.2-0.8-0.5-1c0.3-0.2,0.6-0.3,0.9-0.4c-0.3-0.4-0.6-0.7-0.8-1.1
		c-0.2,0.3-0.5,0.6-0.8,0.9C12,14.8,11.7,15,11.6,15c-0.2-0.1-0.5-0.3-0.6-0.6c-0.2-0.7,0.4-1.8,1.1-2c0.1,0,0.2-0.1,0.4-0.3
		c-0.3,0-0.5,0-0.6,0c0.1-0.3,0.2-0.6,0.3-0.8c-0.8-0.4-1.3-1.3-1-1.8c0.5,0.1,0.9,0.3,1.4,0.3c1-0.1,2.1,0.1,2.6-1.2
		c0.2-0.6,0.9-0.6,1.4,0c0-0.9-0.5-1.4-1.2-1.9c-0.4-0.3-0.4-0.5,0-0.8c0.6-0.5,0.6-1.1,0.1-1.5c-0.4-0.3-0.7-0.7-1.1-1.1
		c0,0.2-0.1,0.5-0.1,1.1c-0.6-1-1-0.3-1.6-0.1c-0.3,0.1-0.8,0-1.3,0c0,0-0.2,0.4-0.3,0.4C9.5,4.4,10.6,5,10.7,5.3
		c0.1,0.2,0.2,0.3,0.6,0.7c-0.6,0-1,0.1-1.4,0C9.2,5.9,8.4,5.6,7.8,6.4c-0.1,0.2-0.6,0-0.9,0c0-0.1,0-0.1,0-0.2
		C7.1,6,7.3,5.8,7.6,5.7C7,4.8,6.7,4.8,5.9,5.7C6,5.8,6.2,5.9,6.2,6c0.1,0.2-0.8,0.7-1.7,1C4.5,6.9,4.5,6.7,4.4,6.6
		C4.2,6.5,4,6.4,3.7,6.4C5.6,4,8.3,2.3,11.2,1.5c0,0.1,0,0.3,0,0.4c0.1,0.2,0.3,0.4,0.5,0.5c0.4,0,0.7-0.1,1.1-0.1
		c0.5,0,1.6-0.6,1.6-1.1c0,0-0.1-0.1-0.1-0.2c0.3,0,0.6,0,0.9,0c5.4,0,10.2,2.9,12.8,7.4c0.2,0.5,0.4,1,0.7,1.4c0.6,1.3,1,2.6,1.2,4
		c0,0.6-0.1,1.3,0,2c0.1,0.5,0.1,1,0.1,1.5C30,17.1,30,17.2,30,17.3z"/>
</g>
</svg>
