<svg id="OBJECTS" xmlns="http://www.w3.org/2000/svg" viewBox="0 0 413 109.4"><defs><style>.cls-1{fill:#ff586f;}.cls-2{fill:#403108;}.cls-3,.cls-4,.cls-6{fill:none;stroke:#403108;stroke-linecap:round;}.cls-3{stroke-linejoin:round;stroke-width:3px;}.cls-4,.cls-6{stroke-miterlimit:10;}.cls-4{stroke-width:4px;}.cls-5{fill:#ffc71f;}.cls-6{stroke-width:7px;}</style></defs><title>Mesa de trabajo 1</title><path class="cls-1" d="M110.17,54.25A52.09,52.09,0,1,1,58.08,2.17,52.09,52.09,0,0,1,110.17,54.25Z"/><path class="cls-2" d="M40.83,55.32h0a5.43,5.43,0,0,1-5.43-5.43V47.72a5.44,5.44,0,0,1,5.43-5.42h0a5.44,5.44,0,0,1,5.42,5.42v2.17A5.45,5.45,0,0,1,40.83,55.32Z"/><path class="cls-2" d="M75.51,55.32h0a5.45,5.45,0,0,1-5.43-5.43V47.72a5.44,5.44,0,0,1,5.43-5.42h0a5.44,5.44,0,0,1,5.42,5.42v2.17A5.45,5.45,0,0,1,75.51,55.32Z"/><path class="cls-3" d="M45.87,78.27c0-5.7,5.5-10.32,12.3-10.32s12.29,4.62,12.29,10.32"/><path class="cls-4" d="M67.77,39A19.21,19.21,0,0,1,78.25,32"/><path class="cls-4" d="M48.56,38.7a19.21,19.21,0,0,0-10.48-6.92"/><path class="cls-5" d="M403.5,54A51.92,51.92,0,1,1,351.58,2.07,51.93,51.93,0,0,1,403.5,54Z"/><path class="cls-4" d="M320.28,40.28s4.64-8.48,12.73-4.41"/><path class="cls-4" d="M363.84,39.63s4.64-8.48,12.73-4.41"/><path class="cls-4" d="M373.62,69.47s-12.51,22.85-34.3,11.88"/><path class="cls-2" d="M371.92,44.7a7.73,7.73,0,0,0-6.21,7.08.78.78,0,0,0,1.19.75,19.2,19.2,0,0,1,12.83-2.76.77.77,0,0,0,.73-1.18A7.72,7.72,0,0,0,371.92,44.7Z"/><path class="cls-2" d="M330.23,59.27h0a6.11,6.11,0,0,1-6.1-6.11V50.72a6.12,6.12,0,0,1,6.1-6.1h0a6.12,6.12,0,0,1,6.1,6.1v2.44A6.12,6.12,0,0,1,330.23,59.27Z"/><circle class="cls-5" cx="201.41" cy="54.32" r="52.08" transform="translate(20.58 158.33) rotate(-45)"/><path class="cls-4" d="M170.43,52.05s.38-5.67,7.1-5.67c6.4,0,7,5.63,7,5.63"/><path class="cls-4" d="M217.91,52.05a7.15,7.15,0,0,1,7.1-5.67c6.71,0,7,5.63,7,5.63"/><path class="cls-1" d="M228.89,90.38c-7.89,3.52-14-10.46-14-10.46L225,72.3s9.56,7.31,7.63,13.68A6.64,6.64,0,0,1,228.89,90.38Z"/><path class="cls-6" d="M226.29,71.81S218.76,84,201.22,84.08a29.62,29.62,0,0,1-25-13.49"/></svg>