<svg width="124" height="35" viewBox="0 0 124 35" fill="none" xmlns="http://www.w3.org/2000/svg">
<path d="M0.63 25.75C0.63 30.37 3.906 34.192 10.374 34.192C17.43 34.192 21.798 28.522 21.798 23.776C21.798 21.298 21.21 19.534 17.682 14.536C15.246 11.134 14.532 9.496 14.532 8.152C14.532 6.934 15.288 6.136 16.212 6.136C17.766 6.136 19.32 6.976 21.546 8.824C22.47 8.362 23.352 7.018 23.352 5.38C23.352 2.86 21.546 0.255998 17.01 0.255998C11.718 0.255998 8.106 5.254 8.106 9.916C8.106 12.52 8.82 14.872 11.046 17.728C14.952 22.684 15.204 23.818 15.204 25.204C15.204 27.346 13.944 28.816 12.348 28.816C9.534 28.816 6.93 26.296 6.93 20.584V19.786C6.552 19.324 5.922 19.114 5.208 19.114C2.268 19.114 0.63 22.684 0.63 25.75ZM36.7956 13.024C36.1236 13.024 35.7456 13.192 35.3256 13.612C35.2836 12.226 33.9396 11.764 32.8476 11.764C28.3956 11.764 23.7756 18.232 23.7756 25.204C23.7756 29.32 26.1276 31.378 29.1096 31.378C32.0496 31.378 34.2756 29.782 36.2916 27.052C36.7536 27.346 37.2156 27.472 37.9716 27.472C41.5416 27.472 44.3556 23.524 44.3556 21.76C44.3556 20.878 43.4736 20.248 42.7176 20.248C41.3316 22.474 40.1136 23.44 38.8956 23.44C38.4756 23.44 38.1816 23.272 38.0556 23.146C38.9376 20.836 39.3576 19.198 39.3576 17.182C39.3576 15.292 38.5176 13.024 36.7956 13.024ZM29.7396 23.65C29.7396 20.206 31.8816 16.132 34.4856 14.914C33.8556 16.132 33.5616 18.358 33.5616 19.786C33.5616 20.92 33.6876 22.138 34.0236 23.44C33.2676 25.33 32.2596 26.296 31.2516 26.296C30.4956 26.296 29.7396 25.708 29.7396 23.65ZM57.0022 19.072C58.0102 17.056 58.0522 16.09 58.0522 14.998C58.0522 13.612 57.1702 12.52 55.5742 12.52C53.7262 12.52 51.6262 13.738 48.5602 19.03C49.5682 16.804 49.8622 15.334 49.8622 14.284C49.8622 13.024 49.2742 12.52 48.0562 12.52C45.4522 12.52 42.0922 15.628 42.0922 18.106C42.0922 18.946 42.1762 19.912 42.5122 20.71C41.7982 22.642 41.3362 24.826 41.3362 26.422C41.3782 28.942 43.1002 31.168 45.4522 31.168C46.4182 31.168 46.7122 31.042 47.1322 30.622C47.2582 27.766 47.6362 25.414 48.2242 22.18C49.8622 19.912 50.8702 19.282 51.2482 19.282C51.5842 19.282 51.7522 19.408 51.7522 19.786C51.7522 20.206 51.3742 21.172 51.0382 22.096C50.2822 24.112 49.6102 26.59 49.6102 28.186C49.6522 30.706 51.2482 31.672 53.6002 31.672C54.4822 31.672 54.8602 31.462 55.2802 31.042C55.4062 28.186 55.8262 25.834 56.4142 22.6C58.0522 20.332 59.5222 19.45 59.9002 19.45C60.2362 19.45 60.4042 19.618 60.4042 19.954C60.4042 20.878 57.9262 25.876 57.9262 28.648C57.9262 30.958 58.7662 32.05 61.2442 32.05C65.1082 32.05 72.4582 24.448 72.4582 21.802C72.4582 20.962 71.6182 20.416 70.8202 20.416C67.9222 24.532 65.2342 26.716 64.4782 26.716C64.1002 26.716 63.8902 26.548 63.8902 26.086C63.8902 25.036 65.5702 21.382 66.3262 19.534C67.0822 17.77 67.4602 16.3 67.4602 15.208C67.4602 13.57 66.5362 12.1 64.6042 12.1C62.7562 12.1 60.4462 13.906 57.0022 19.072ZM70.5649 21.13C69.8509 23.062 69.5149 24.784 69.5149 26.38C69.5569 28.9 71.2789 31.126 73.6309 31.126C74.5969 31.126 74.8909 31 75.3109 30.58C75.4369 27.724 75.6889 25.834 76.2769 22.6C77.9149 20.332 79.3009 19.702 79.6789 19.702C80.0149 19.702 80.1829 19.87 80.1829 20.206C80.1829 21.13 78.0409 25.372 78.0409 28.144C78.0409 30.454 78.8809 31.546 81.3589 31.546C85.2229 31.546 92.3209 24.448 92.3209 21.802C92.3209 20.962 91.4809 20.416 90.6829 20.416C88.0789 24.154 85.4329 26.296 84.5929 26.296C84.2149 26.296 84.0049 26.128 84.0049 25.666C84.0049 24.616 85.3489 21.634 86.1049 19.786C86.9869 17.77 87.3229 16.3 87.3229 15.166C87.3229 13.528 86.3569 12.268 84.4249 12.268C82.5769 12.268 79.6789 14.158 76.6129 19.45C77.7469 17.392 78.2929 14.452 78.2929 13.402C78.2929 12.142 77.9149 11.638 76.4869 11.638C73.8829 11.638 70.1449 16.048 70.1449 18.526C70.1449 19.366 70.2289 20.332 70.5649 21.13ZM101.042 12.226C100.832 15.838 100.244 18.778 98.8165 23.314C97.9765 24.196 96.6325 25.204 95.9185 25.204C95.3305 25.204 95.0785 24.784 95.0785 24.112C95.0785 23.44 95.3305 22.18 95.7505 20.668C97.8925 17.182 98.9845 14.662 98.9845 13.318C98.9845 12.058 98.2705 11.638 96.9685 11.638C94.0285 11.638 89.9965 16.342 89.9965 18.946C89.9965 19.786 90.0805 20.668 90.5425 21.55C89.4505 24.238 88.8625 26.674 88.8625 27.934C88.8625 30.454 89.4505 31.882 91.9285 31.882C93.8185 31.882 96.3805 30.118 98.3965 26.296C98.2285 27.178 98.1445 27.892 98.1445 28.48C98.1445 30.664 99.1945 31.21 100.916 31.21C102.68 31.21 104.906 29.866 106.88 28.102C109.316 25.96 111.416 23.23 111.416 21.718C111.416 20.962 110.576 20.416 109.694 20.416C107.006 24.196 104.99 25.876 104.024 25.876C103.688 25.876 103.436 25.75 103.436 25.204C103.436 24.406 105.2 20.5 106.082 18.106C106.712 16.426 106.88 15.586 106.88 14.83C106.88 13.108 105.158 11.428 102.806 11.428C102.176 11.428 101.462 11.68 101.042 12.226ZM109.994 18.946C107.936 18.946 107.264 23.02 107.264 25.498C107.264 29.656 109.826 31.882 113.102 31.882C116.882 31.882 121.208 29.908 121.208 24.826C121.208 21.76 118.814 18.274 118.814 16.384C118.814 15.628 119.276 15.376 120.158 15.376C120.83 15.376 121.586 15.544 122.384 15.88C122.888 15.376 123.266 14.494 123.266 13.612C123.266 11.596 121.838 10.546 119.402 10.546C115.58 10.546 112.724 12.982 112.724 16.51C112.724 19.114 115.16 24.196 115.16 26.338C115.16 27.052 114.698 27.304 114.278 27.304C113.312 27.304 111.884 26.044 111.548 24.196C112.262 23.398 112.64 22.768 112.64 21.886C112.64 20.836 111.464 18.946 109.994 18.946Z" fill="white"/>
</svg>
